<mxfile host="app.diagrams.net" modified="2022-12-20T23:40:06.976Z" agent="5.0 (X11)" version="20.7.4" etag="alLIlvvx5oQ9l96WE1Ys" type="github" pages="3">
  <diagram id="n6CbByNnBrOY9F7yEL12" name="Relational Database">
    <mxGraphModel dx="2049" dy="1084" grid="1" gridSize="10" guides="1" tooltips="1" connect="1" arrows="1" fold="1" page="1" pageScale="1" pageWidth="1100" pageHeight="850" math="0" shadow="0">
      <root>
        <mxCell id="0" />
        <mxCell id="1" parent="0" />
        <mxCell id="syeNH5UYueC8ENAQt5Jf-138" style="edgeStyle=orthogonalEdgeStyle;rounded=0;sketch=0;orthogonalLoop=1;jettySize=auto;html=1;exitX=0.5;exitY=1;exitDx=0;exitDy=0;entryX=0.5;entryY=0;entryDx=0;entryDy=0;fontFamily=Lucida Console;endArrow=ERmany;endFill=0;" edge="1" parent="1" source="syeNH5UYueC8ENAQt5Jf-1" target="syeNH5UYueC8ENAQt5Jf-29">
          <mxGeometry relative="1" as="geometry" />
        </mxCell>
        <mxCell id="syeNH5UYueC8ENAQt5Jf-1" value="Provider" style="shape=table;startSize=20;container=1;collapsible=1;childLayout=tableLayout;fixedRows=1;rowLines=0;fontStyle=1;align=center;resizeLast=1;" vertex="1" parent="1">
          <mxGeometry x="150" y="195" width="200" height="220" as="geometry">
            <mxRectangle x="345" y="144" width="90" height="30" as="alternateBounds" />
          </mxGeometry>
        </mxCell>
        <mxCell id="syeNH5UYueC8ENAQt5Jf-2" value="" style="shape=partialRectangle;collapsible=0;dropTarget=0;pointerEvents=0;fillColor=none;top=0;left=0;bottom=1;right=0;points=[[0,0.5],[1,0.5]];portConstraint=eastwest;" vertex="1" parent="syeNH5UYueC8ENAQt5Jf-1">
          <mxGeometry y="20" width="200" height="20" as="geometry" />
        </mxCell>
        <mxCell id="syeNH5UYueC8ENAQt5Jf-3" value="PK" style="shape=partialRectangle;connectable=0;fillColor=none;top=0;left=0;bottom=0;right=0;fontStyle=1;overflow=hidden;" vertex="1" parent="syeNH5UYueC8ENAQt5Jf-2">
          <mxGeometry width="40" height="20" as="geometry">
            <mxRectangle width="40" height="20" as="alternateBounds" />
          </mxGeometry>
        </mxCell>
        <mxCell id="syeNH5UYueC8ENAQt5Jf-4" value="id: INTEGER" style="shape=partialRectangle;connectable=0;fillColor=none;top=0;left=0;bottom=0;right=0;align=left;spacingLeft=6;fontStyle=5;overflow=hidden;" vertex="1" parent="syeNH5UYueC8ENAQt5Jf-2">
          <mxGeometry x="40" width="160" height="20" as="geometry">
            <mxRectangle width="160" height="20" as="alternateBounds" />
          </mxGeometry>
        </mxCell>
        <mxCell id="syeNH5UYueC8ENAQt5Jf-5" value="" style="shape=partialRectangle;collapsible=0;dropTarget=0;pointerEvents=0;fillColor=none;top=0;left=0;bottom=0;right=0;points=[[0,0.5],[1,0.5]];portConstraint=eastwest;" vertex="1" parent="syeNH5UYueC8ENAQt5Jf-1">
          <mxGeometry y="40" width="200" height="20" as="geometry" />
        </mxCell>
        <mxCell id="syeNH5UYueC8ENAQt5Jf-6" value="" style="shape=partialRectangle;connectable=0;fillColor=none;top=0;left=0;bottom=0;right=0;editable=1;overflow=hidden;" vertex="1" parent="syeNH5UYueC8ENAQt5Jf-5">
          <mxGeometry width="40" height="20" as="geometry">
            <mxRectangle width="40" height="20" as="alternateBounds" />
          </mxGeometry>
        </mxCell>
        <mxCell id="syeNH5UYueC8ENAQt5Jf-7" value="name: VARCHAR" style="shape=partialRectangle;connectable=0;fillColor=none;top=0;left=0;bottom=0;right=0;align=left;spacingLeft=6;overflow=hidden;" vertex="1" parent="syeNH5UYueC8ENAQt5Jf-5">
          <mxGeometry x="40" width="160" height="20" as="geometry">
            <mxRectangle width="160" height="20" as="alternateBounds" />
          </mxGeometry>
        </mxCell>
        <mxCell id="syeNH5UYueC8ENAQt5Jf-8" value="" style="shape=partialRectangle;collapsible=0;dropTarget=0;pointerEvents=0;fillColor=none;top=0;left=0;bottom=0;right=0;points=[[0,0.5],[1,0.5]];portConstraint=eastwest;" vertex="1" parent="syeNH5UYueC8ENAQt5Jf-1">
          <mxGeometry y="60" width="200" height="20" as="geometry" />
        </mxCell>
        <mxCell id="syeNH5UYueC8ENAQt5Jf-9" value="" style="shape=partialRectangle;connectable=0;fillColor=none;top=0;left=0;bottom=0;right=0;editable=1;overflow=hidden;" vertex="1" parent="syeNH5UYueC8ENAQt5Jf-8">
          <mxGeometry width="40" height="20" as="geometry">
            <mxRectangle width="40" height="20" as="alternateBounds" />
          </mxGeometry>
        </mxCell>
        <mxCell id="syeNH5UYueC8ENAQt5Jf-10" value="rut: VARCHAR" style="shape=partialRectangle;connectable=0;fillColor=none;top=0;left=0;bottom=0;right=0;align=left;spacingLeft=6;overflow=hidden;" vertex="1" parent="syeNH5UYueC8ENAQt5Jf-8">
          <mxGeometry x="40" width="160" height="20" as="geometry">
            <mxRectangle width="160" height="20" as="alternateBounds" />
          </mxGeometry>
        </mxCell>
        <mxCell id="syeNH5UYueC8ENAQt5Jf-11" value="" style="shape=partialRectangle;collapsible=0;dropTarget=0;pointerEvents=0;fillColor=none;top=0;left=0;bottom=0;right=0;points=[[0,0.5],[1,0.5]];portConstraint=eastwest;" vertex="1" parent="syeNH5UYueC8ENAQt5Jf-1">
          <mxGeometry y="80" width="200" height="20" as="geometry" />
        </mxCell>
        <mxCell id="syeNH5UYueC8ENAQt5Jf-12" value="" style="shape=partialRectangle;connectable=0;fillColor=none;top=0;left=0;bottom=0;right=0;editable=1;overflow=hidden;" vertex="1" parent="syeNH5UYueC8ENAQt5Jf-11">
          <mxGeometry width="40" height="20" as="geometry">
            <mxRectangle width="40" height="20" as="alternateBounds" />
          </mxGeometry>
        </mxCell>
        <mxCell id="syeNH5UYueC8ENAQt5Jf-13" value="email: VARCHAR" style="shape=partialRectangle;connectable=0;fillColor=none;top=0;left=0;bottom=0;right=0;align=left;spacingLeft=6;overflow=hidden;" vertex="1" parent="syeNH5UYueC8ENAQt5Jf-11">
          <mxGeometry x="40" width="160" height="20" as="geometry">
            <mxRectangle width="160" height="20" as="alternateBounds" />
          </mxGeometry>
        </mxCell>
        <mxCell id="syeNH5UYueC8ENAQt5Jf-14" value="" style="shape=partialRectangle;collapsible=0;dropTarget=0;pointerEvents=0;fillColor=none;top=0;left=0;bottom=0;right=0;points=[[0,0.5],[1,0.5]];portConstraint=eastwest;" vertex="1" parent="syeNH5UYueC8ENAQt5Jf-1">
          <mxGeometry y="100" width="200" height="20" as="geometry" />
        </mxCell>
        <mxCell id="syeNH5UYueC8ENAQt5Jf-15" value="" style="shape=partialRectangle;connectable=0;fillColor=none;top=0;left=0;bottom=0;right=0;editable=1;overflow=hidden;" vertex="1" parent="syeNH5UYueC8ENAQt5Jf-14">
          <mxGeometry width="40" height="20" as="geometry">
            <mxRectangle width="40" height="20" as="alternateBounds" />
          </mxGeometry>
        </mxCell>
        <mxCell id="syeNH5UYueC8ENAQt5Jf-16" value="phone: VARCHAR" style="shape=partialRectangle;connectable=0;fillColor=none;top=0;left=0;bottom=0;right=0;align=left;spacingLeft=6;overflow=hidden;" vertex="1" parent="syeNH5UYueC8ENAQt5Jf-14">
          <mxGeometry x="40" width="160" height="20" as="geometry">
            <mxRectangle width="160" height="20" as="alternateBounds" />
          </mxGeometry>
        </mxCell>
        <mxCell id="syeNH5UYueC8ENAQt5Jf-17" value="" style="shape=partialRectangle;collapsible=0;dropTarget=0;pointerEvents=0;fillColor=none;top=0;left=0;bottom=0;right=0;points=[[0,0.5],[1,0.5]];portConstraint=eastwest;" vertex="1" parent="syeNH5UYueC8ENAQt5Jf-1">
          <mxGeometry y="120" width="200" height="20" as="geometry" />
        </mxCell>
        <mxCell id="syeNH5UYueC8ENAQt5Jf-18" value="" style="shape=partialRectangle;connectable=0;fillColor=none;top=0;left=0;bottom=0;right=0;editable=1;overflow=hidden;" vertex="1" parent="syeNH5UYueC8ENAQt5Jf-17">
          <mxGeometry width="40" height="20" as="geometry">
            <mxRectangle width="40" height="20" as="alternateBounds" />
          </mxGeometry>
        </mxCell>
        <mxCell id="syeNH5UYueC8ENAQt5Jf-19" value="nationality: VARCHAR" style="shape=partialRectangle;connectable=0;fillColor=none;top=0;left=0;bottom=0;right=0;align=left;spacingLeft=6;overflow=hidden;" vertex="1" parent="syeNH5UYueC8ENAQt5Jf-17">
          <mxGeometry x="40" width="160" height="20" as="geometry">
            <mxRectangle width="160" height="20" as="alternateBounds" />
          </mxGeometry>
        </mxCell>
        <mxCell id="syeNH5UYueC8ENAQt5Jf-20" value="" style="shape=partialRectangle;collapsible=0;dropTarget=0;pointerEvents=0;fillColor=none;top=0;left=0;bottom=0;right=0;points=[[0,0.5],[1,0.5]];portConstraint=eastwest;" vertex="1" parent="syeNH5UYueC8ENAQt5Jf-1">
          <mxGeometry y="140" width="200" height="20" as="geometry" />
        </mxCell>
        <mxCell id="syeNH5UYueC8ENAQt5Jf-21" value="" style="shape=partialRectangle;connectable=0;fillColor=none;top=0;left=0;bottom=0;right=0;editable=1;overflow=hidden;" vertex="1" parent="syeNH5UYueC8ENAQt5Jf-20">
          <mxGeometry width="40" height="20" as="geometry">
            <mxRectangle width="40" height="20" as="alternateBounds" />
          </mxGeometry>
        </mxCell>
        <mxCell id="syeNH5UYueC8ENAQt5Jf-22" value="address: VARCHAR" style="shape=partialRectangle;connectable=0;fillColor=none;top=0;left=0;bottom=0;right=0;align=left;spacingLeft=6;overflow=hidden;" vertex="1" parent="syeNH5UYueC8ENAQt5Jf-20">
          <mxGeometry x="40" width="160" height="20" as="geometry">
            <mxRectangle width="160" height="20" as="alternateBounds" />
          </mxGeometry>
        </mxCell>
        <mxCell id="syeNH5UYueC8ENAQt5Jf-23" value="" style="shape=partialRectangle;collapsible=0;dropTarget=0;pointerEvents=0;fillColor=none;top=0;left=0;bottom=0;right=0;points=[[0,0.5],[1,0.5]];portConstraint=eastwest;" vertex="1" parent="syeNH5UYueC8ENAQt5Jf-1">
          <mxGeometry y="160" width="200" height="20" as="geometry" />
        </mxCell>
        <mxCell id="syeNH5UYueC8ENAQt5Jf-24" value="" style="shape=partialRectangle;connectable=0;fillColor=none;top=0;left=0;bottom=0;right=0;editable=1;overflow=hidden;" vertex="1" parent="syeNH5UYueC8ENAQt5Jf-23">
          <mxGeometry width="40" height="20" as="geometry">
            <mxRectangle width="40" height="20" as="alternateBounds" />
          </mxGeometry>
        </mxCell>
        <mxCell id="syeNH5UYueC8ENAQt5Jf-25" value="birthday: DATE" style="shape=partialRectangle;connectable=0;fillColor=none;top=0;left=0;bottom=0;right=0;align=left;spacingLeft=6;overflow=hidden;" vertex="1" parent="syeNH5UYueC8ENAQt5Jf-23">
          <mxGeometry x="40" width="160" height="20" as="geometry">
            <mxRectangle width="160" height="20" as="alternateBounds" />
          </mxGeometry>
        </mxCell>
        <mxCell id="syeNH5UYueC8ENAQt5Jf-26" value="" style="shape=partialRectangle;collapsible=0;dropTarget=0;pointerEvents=0;fillColor=none;top=0;left=0;bottom=0;right=0;points=[[0,0.5],[1,0.5]];portConstraint=eastwest;" vertex="1" parent="syeNH5UYueC8ENAQt5Jf-1">
          <mxGeometry y="180" width="200" height="20" as="geometry" />
        </mxCell>
        <mxCell id="syeNH5UYueC8ENAQt5Jf-27" value="" style="shape=partialRectangle;connectable=0;fillColor=none;top=0;left=0;bottom=0;right=0;editable=1;overflow=hidden;" vertex="1" parent="syeNH5UYueC8ENAQt5Jf-26">
          <mxGeometry width="40" height="20" as="geometry">
            <mxRectangle width="40" height="20" as="alternateBounds" />
          </mxGeometry>
        </mxCell>
        <mxCell id="syeNH5UYueC8ENAQt5Jf-28" value="password: VARCHAR" style="shape=partialRectangle;connectable=0;fillColor=none;top=0;left=0;bottom=0;right=0;align=left;spacingLeft=6;overflow=hidden;" vertex="1" parent="syeNH5UYueC8ENAQt5Jf-26">
          <mxGeometry x="40" width="160" height="20" as="geometry">
            <mxRectangle width="160" height="20" as="alternateBounds" />
          </mxGeometry>
        </mxCell>
        <mxCell id="syeNH5UYueC8ENAQt5Jf-121" value="" style="shape=partialRectangle;collapsible=0;dropTarget=0;pointerEvents=0;fillColor=none;top=0;left=0;bottom=0;right=0;points=[[0,0.5],[1,0.5]];portConstraint=eastwest;" vertex="1" parent="syeNH5UYueC8ENAQt5Jf-1">
          <mxGeometry y="200" width="200" height="20" as="geometry" />
        </mxCell>
        <mxCell id="syeNH5UYueC8ENAQt5Jf-122" value="" style="shape=partialRectangle;connectable=0;fillColor=none;top=0;left=0;bottom=0;right=0;editable=1;overflow=hidden;" vertex="1" parent="syeNH5UYueC8ENAQt5Jf-121">
          <mxGeometry width="40" height="20" as="geometry">
            <mxRectangle width="40" height="20" as="alternateBounds" />
          </mxGeometry>
        </mxCell>
        <mxCell id="syeNH5UYueC8ENAQt5Jf-123" value="properties: JSON" style="shape=partialRectangle;connectable=0;fillColor=none;top=0;left=0;bottom=0;right=0;align=left;spacingLeft=6;overflow=hidden;" vertex="1" parent="syeNH5UYueC8ENAQt5Jf-121">
          <mxGeometry x="40" width="160" height="20" as="geometry">
            <mxRectangle width="160" height="20" as="alternateBounds" />
          </mxGeometry>
        </mxCell>
        <mxCell id="syeNH5UYueC8ENAQt5Jf-142" style="edgeStyle=orthogonalEdgeStyle;rounded=0;sketch=0;orthogonalLoop=1;jettySize=auto;html=1;exitX=1;exitY=0.5;exitDx=0;exitDy=0;entryX=0;entryY=0.5;entryDx=0;entryDy=0;fontFamily=Lucida Console;endArrow=ERmany;endFill=0;" edge="1" parent="1" source="syeNH5UYueC8ENAQt5Jf-29" target="syeNH5UYueC8ENAQt5Jf-67">
          <mxGeometry relative="1" as="geometry" />
        </mxCell>
        <mxCell id="syeNH5UYueC8ENAQt5Jf-29" value="Item" style="shape=table;startSize=20;container=1;collapsible=1;childLayout=tableLayout;fixedRows=1;rowLines=0;fontStyle=1;align=center;resizeLast=1;" vertex="1" parent="1">
          <mxGeometry x="150" y="495" width="200" height="160" as="geometry">
            <mxRectangle x="200" y="360" width="70" height="30" as="alternateBounds" />
          </mxGeometry>
        </mxCell>
        <mxCell id="syeNH5UYueC8ENAQt5Jf-30" value="" style="shape=partialRectangle;collapsible=0;dropTarget=0;pointerEvents=0;fillColor=none;top=0;left=0;bottom=0;right=0;points=[[0,0.5],[1,0.5]];portConstraint=eastwest;" vertex="1" parent="syeNH5UYueC8ENAQt5Jf-29">
          <mxGeometry y="20" width="200" height="20" as="geometry" />
        </mxCell>
        <mxCell id="syeNH5UYueC8ENAQt5Jf-31" value="PK" style="shape=partialRectangle;connectable=0;fillColor=none;top=0;left=0;bottom=0;right=0;fontStyle=1;overflow=hidden;" vertex="1" parent="syeNH5UYueC8ENAQt5Jf-30">
          <mxGeometry width="40" height="20" as="geometry">
            <mxRectangle width="40" height="20" as="alternateBounds" />
          </mxGeometry>
        </mxCell>
        <mxCell id="syeNH5UYueC8ENAQt5Jf-32" value="id: INTEGER" style="shape=partialRectangle;connectable=0;fillColor=none;top=0;left=0;bottom=0;right=0;align=left;spacingLeft=6;fontStyle=5;overflow=hidden;" vertex="1" parent="syeNH5UYueC8ENAQt5Jf-30">
          <mxGeometry x="40" width="160" height="20" as="geometry">
            <mxRectangle width="160" height="20" as="alternateBounds" />
          </mxGeometry>
        </mxCell>
        <mxCell id="syeNH5UYueC8ENAQt5Jf-33" value="" style="shape=partialRectangle;collapsible=0;dropTarget=0;pointerEvents=0;fillColor=none;top=0;left=0;bottom=1;right=0;points=[[0,0.5],[1,0.5]];portConstraint=eastwest;" vertex="1" parent="syeNH5UYueC8ENAQt5Jf-29">
          <mxGeometry y="40" width="200" height="20" as="geometry" />
        </mxCell>
        <mxCell id="syeNH5UYueC8ENAQt5Jf-34" value="FK" style="shape=partialRectangle;connectable=0;fillColor=none;top=0;left=0;bottom=0;right=0;fontStyle=1;overflow=hidden;" vertex="1" parent="syeNH5UYueC8ENAQt5Jf-33">
          <mxGeometry width="40" height="20" as="geometry">
            <mxRectangle width="40" height="20" as="alternateBounds" />
          </mxGeometry>
        </mxCell>
        <mxCell id="syeNH5UYueC8ENAQt5Jf-35" value="providerId: INTEGER" style="shape=partialRectangle;connectable=0;fillColor=none;top=0;left=0;bottom=0;right=0;align=left;spacingLeft=6;fontStyle=5;overflow=hidden;" vertex="1" parent="syeNH5UYueC8ENAQt5Jf-33">
          <mxGeometry x="40" width="160" height="20" as="geometry">
            <mxRectangle width="160" height="20" as="alternateBounds" />
          </mxGeometry>
        </mxCell>
        <mxCell id="syeNH5UYueC8ENAQt5Jf-36" value="" style="shape=partialRectangle;collapsible=0;dropTarget=0;pointerEvents=0;fillColor=none;top=0;left=0;bottom=0;right=0;points=[[0,0.5],[1,0.5]];portConstraint=eastwest;" vertex="1" parent="syeNH5UYueC8ENAQt5Jf-29">
          <mxGeometry y="60" width="200" height="20" as="geometry" />
        </mxCell>
        <mxCell id="syeNH5UYueC8ENAQt5Jf-37" value="" style="shape=partialRectangle;connectable=0;fillColor=none;top=0;left=0;bottom=0;right=0;editable=1;overflow=hidden;" vertex="1" parent="syeNH5UYueC8ENAQt5Jf-36">
          <mxGeometry width="40" height="20" as="geometry">
            <mxRectangle width="40" height="20" as="alternateBounds" />
          </mxGeometry>
        </mxCell>
        <mxCell id="syeNH5UYueC8ENAQt5Jf-38" value="name: VARCHAR" style="shape=partialRectangle;connectable=0;fillColor=none;top=0;left=0;bottom=0;right=0;align=left;spacingLeft=6;overflow=hidden;" vertex="1" parent="syeNH5UYueC8ENAQt5Jf-36">
          <mxGeometry x="40" width="160" height="20" as="geometry">
            <mxRectangle width="160" height="20" as="alternateBounds" />
          </mxGeometry>
        </mxCell>
        <mxCell id="syeNH5UYueC8ENAQt5Jf-39" value="" style="shape=partialRectangle;collapsible=0;dropTarget=0;pointerEvents=0;fillColor=none;top=0;left=0;bottom=0;right=0;points=[[0,0.5],[1,0.5]];portConstraint=eastwest;" vertex="1" parent="syeNH5UYueC8ENAQt5Jf-29">
          <mxGeometry y="80" width="200" height="20" as="geometry" />
        </mxCell>
        <mxCell id="syeNH5UYueC8ENAQt5Jf-40" value="" style="shape=partialRectangle;connectable=0;fillColor=none;top=0;left=0;bottom=0;right=0;editable=1;overflow=hidden;" vertex="1" parent="syeNH5UYueC8ENAQt5Jf-39">
          <mxGeometry width="40" height="20" as="geometry">
            <mxRectangle width="40" height="20" as="alternateBounds" />
          </mxGeometry>
        </mxCell>
        <mxCell id="syeNH5UYueC8ENAQt5Jf-41" value="description: VARCHAR" style="shape=partialRectangle;connectable=0;fillColor=none;top=0;left=0;bottom=0;right=0;align=left;spacingLeft=6;overflow=hidden;" vertex="1" parent="syeNH5UYueC8ENAQt5Jf-39">
          <mxGeometry x="40" width="160" height="20" as="geometry">
            <mxRectangle width="160" height="20" as="alternateBounds" />
          </mxGeometry>
        </mxCell>
        <mxCell id="syeNH5UYueC8ENAQt5Jf-42" value="" style="shape=partialRectangle;collapsible=0;dropTarget=0;pointerEvents=0;fillColor=none;top=0;left=0;bottom=0;right=0;points=[[0,0.5],[1,0.5]];portConstraint=eastwest;" vertex="1" parent="syeNH5UYueC8ENAQt5Jf-29">
          <mxGeometry y="100" width="200" height="20" as="geometry" />
        </mxCell>
        <mxCell id="syeNH5UYueC8ENAQt5Jf-43" value="" style="shape=partialRectangle;connectable=0;fillColor=none;top=0;left=0;bottom=0;right=0;editable=1;overflow=hidden;" vertex="1" parent="syeNH5UYueC8ENAQt5Jf-42">
          <mxGeometry width="40" height="20" as="geometry">
            <mxRectangle width="40" height="20" as="alternateBounds" />
          </mxGeometry>
        </mxCell>
        <mxCell id="syeNH5UYueC8ENAQt5Jf-44" value="currency: VARCHAR" style="shape=partialRectangle;connectable=0;fillColor=none;top=0;left=0;bottom=0;right=0;align=left;spacingLeft=6;overflow=hidden;" vertex="1" parent="syeNH5UYueC8ENAQt5Jf-42">
          <mxGeometry x="40" width="160" height="20" as="geometry">
            <mxRectangle width="160" height="20" as="alternateBounds" />
          </mxGeometry>
        </mxCell>
        <mxCell id="syeNH5UYueC8ENAQt5Jf-45" value="" style="shape=partialRectangle;collapsible=0;dropTarget=0;pointerEvents=0;fillColor=none;top=0;left=0;bottom=0;right=0;points=[[0,0.5],[1,0.5]];portConstraint=eastwest;" vertex="1" parent="syeNH5UYueC8ENAQt5Jf-29">
          <mxGeometry y="120" width="200" height="20" as="geometry" />
        </mxCell>
        <mxCell id="syeNH5UYueC8ENAQt5Jf-46" value="" style="shape=partialRectangle;connectable=0;fillColor=none;top=0;left=0;bottom=0;right=0;editable=1;overflow=hidden;" vertex="1" parent="syeNH5UYueC8ENAQt5Jf-45">
          <mxGeometry width="40" height="20" as="geometry">
            <mxRectangle width="40" height="20" as="alternateBounds" />
          </mxGeometry>
        </mxCell>
        <mxCell id="syeNH5UYueC8ENAQt5Jf-47" value="unitCost: FLOAT" style="shape=partialRectangle;connectable=0;fillColor=none;top=0;left=0;bottom=0;right=0;align=left;spacingLeft=6;overflow=hidden;" vertex="1" parent="syeNH5UYueC8ENAQt5Jf-45">
          <mxGeometry x="40" width="160" height="20" as="geometry">
            <mxRectangle width="160" height="20" as="alternateBounds" />
          </mxGeometry>
        </mxCell>
        <mxCell id="syeNH5UYueC8ENAQt5Jf-130" value="" style="shape=partialRectangle;collapsible=0;dropTarget=0;pointerEvents=0;fillColor=none;top=0;left=0;bottom=0;right=0;points=[[0,0.5],[1,0.5]];portConstraint=eastwest;" vertex="1" parent="syeNH5UYueC8ENAQt5Jf-29">
          <mxGeometry y="140" width="200" height="20" as="geometry" />
        </mxCell>
        <mxCell id="syeNH5UYueC8ENAQt5Jf-131" value="" style="shape=partialRectangle;connectable=0;fillColor=none;top=0;left=0;bottom=0;right=0;editable=1;overflow=hidden;" vertex="1" parent="syeNH5UYueC8ENAQt5Jf-130">
          <mxGeometry width="40" height="20" as="geometry">
            <mxRectangle width="40" height="20" as="alternateBounds" />
          </mxGeometry>
        </mxCell>
        <mxCell id="syeNH5UYueC8ENAQt5Jf-132" value="properties: JSON" style="shape=partialRectangle;connectable=0;fillColor=none;top=0;left=0;bottom=0;right=0;align=left;spacingLeft=6;overflow=hidden;" vertex="1" parent="syeNH5UYueC8ENAQt5Jf-130">
          <mxGeometry x="40" width="160" height="20" as="geometry">
            <mxRectangle width="160" height="20" as="alternateBounds" />
          </mxGeometry>
        </mxCell>
        <mxCell id="syeNH5UYueC8ENAQt5Jf-146" style="edgeStyle=orthogonalEdgeStyle;rounded=0;sketch=0;orthogonalLoop=1;jettySize=auto;html=1;exitX=0;exitY=0.5;exitDx=0;exitDy=0;entryX=1;entryY=0.5;entryDx=0;entryDy=0;fontFamily=Lucida Console;endArrow=ERmany;endFill=0;" edge="1" parent="1" source="syeNH5UYueC8ENAQt5Jf-48" target="syeNH5UYueC8ENAQt5Jf-67">
          <mxGeometry relative="1" as="geometry" />
        </mxCell>
        <mxCell id="syeNH5UYueC8ENAQt5Jf-48" value="Request" style="shape=table;startSize=20;container=1;collapsible=1;childLayout=tableLayout;fixedRows=1;rowLines=0;fontStyle=1;align=center;resizeLast=1;" vertex="1" parent="1">
          <mxGeometry x="750" y="495" width="200" height="160" as="geometry">
            <mxRectangle x="800" y="360" width="90" height="30" as="alternateBounds" />
          </mxGeometry>
        </mxCell>
        <mxCell id="syeNH5UYueC8ENAQt5Jf-49" value="" style="shape=partialRectangle;collapsible=0;dropTarget=0;pointerEvents=0;fillColor=none;top=0;left=0;bottom=0;right=0;points=[[0,0.5],[1,0.5]];portConstraint=eastwest;" vertex="1" parent="syeNH5UYueC8ENAQt5Jf-48">
          <mxGeometry y="20" width="200" height="20" as="geometry" />
        </mxCell>
        <mxCell id="syeNH5UYueC8ENAQt5Jf-50" value="PK" style="shape=partialRectangle;connectable=0;fillColor=none;top=0;left=0;bottom=0;right=0;fontStyle=1;overflow=hidden;" vertex="1" parent="syeNH5UYueC8ENAQt5Jf-49">
          <mxGeometry width="40" height="20" as="geometry">
            <mxRectangle width="40" height="20" as="alternateBounds" />
          </mxGeometry>
        </mxCell>
        <mxCell id="syeNH5UYueC8ENAQt5Jf-51" value="id: INTEGER" style="shape=partialRectangle;connectable=0;fillColor=none;top=0;left=0;bottom=0;right=0;align=left;spacingLeft=6;fontStyle=5;overflow=hidden;" vertex="1" parent="syeNH5UYueC8ENAQt5Jf-49">
          <mxGeometry x="40" width="160" height="20" as="geometry">
            <mxRectangle width="160" height="20" as="alternateBounds" />
          </mxGeometry>
        </mxCell>
        <mxCell id="syeNH5UYueC8ENAQt5Jf-52" value="" style="shape=partialRectangle;collapsible=0;dropTarget=0;pointerEvents=0;fillColor=none;top=0;left=0;bottom=1;right=0;points=[[0,0.5],[1,0.5]];portConstraint=eastwest;" vertex="1" parent="syeNH5UYueC8ENAQt5Jf-48">
          <mxGeometry y="40" width="200" height="20" as="geometry" />
        </mxCell>
        <mxCell id="syeNH5UYueC8ENAQt5Jf-53" value="FK" style="shape=partialRectangle;connectable=0;fillColor=none;top=0;left=0;bottom=0;right=0;fontStyle=1;overflow=hidden;" vertex="1" parent="syeNH5UYueC8ENAQt5Jf-52">
          <mxGeometry width="40" height="20" as="geometry">
            <mxRectangle width="40" height="20" as="alternateBounds" />
          </mxGeometry>
        </mxCell>
        <mxCell id="syeNH5UYueC8ENAQt5Jf-54" value="clientId: INTEGER" style="shape=partialRectangle;connectable=0;fillColor=none;top=0;left=0;bottom=0;right=0;align=left;spacingLeft=6;fontStyle=5;overflow=hidden;" vertex="1" parent="syeNH5UYueC8ENAQt5Jf-52">
          <mxGeometry x="40" width="160" height="20" as="geometry">
            <mxRectangle width="160" height="20" as="alternateBounds" />
          </mxGeometry>
        </mxCell>
        <mxCell id="syeNH5UYueC8ENAQt5Jf-55" value="" style="shape=partialRectangle;collapsible=0;dropTarget=0;pointerEvents=0;fillColor=none;top=0;left=0;bottom=0;right=0;points=[[0,0.5],[1,0.5]];portConstraint=eastwest;" vertex="1" parent="syeNH5UYueC8ENAQt5Jf-48">
          <mxGeometry y="60" width="200" height="20" as="geometry" />
        </mxCell>
        <mxCell id="syeNH5UYueC8ENAQt5Jf-56" value="" style="shape=partialRectangle;connectable=0;fillColor=none;top=0;left=0;bottom=0;right=0;editable=1;overflow=hidden;" vertex="1" parent="syeNH5UYueC8ENAQt5Jf-55">
          <mxGeometry width="40" height="20" as="geometry">
            <mxRectangle width="40" height="20" as="alternateBounds" />
          </mxGeometry>
        </mxCell>
        <mxCell id="syeNH5UYueC8ENAQt5Jf-57" value="date: DATE" style="shape=partialRectangle;connectable=0;fillColor=none;top=0;left=0;bottom=0;right=0;align=left;spacingLeft=6;overflow=hidden;" vertex="1" parent="syeNH5UYueC8ENAQt5Jf-55">
          <mxGeometry x="40" width="160" height="20" as="geometry">
            <mxRectangle width="160" height="20" as="alternateBounds" />
          </mxGeometry>
        </mxCell>
        <mxCell id="syeNH5UYueC8ENAQt5Jf-58" value="" style="shape=partialRectangle;collapsible=0;dropTarget=0;pointerEvents=0;fillColor=none;top=0;left=0;bottom=0;right=0;points=[[0,0.5],[1,0.5]];portConstraint=eastwest;" vertex="1" parent="syeNH5UYueC8ENAQt5Jf-48">
          <mxGeometry y="80" width="200" height="20" as="geometry" />
        </mxCell>
        <mxCell id="syeNH5UYueC8ENAQt5Jf-59" value="" style="shape=partialRectangle;connectable=0;fillColor=none;top=0;left=0;bottom=0;right=0;editable=1;overflow=hidden;" vertex="1" parent="syeNH5UYueC8ENAQt5Jf-58">
          <mxGeometry width="40" height="20" as="geometry">
            <mxRectangle width="40" height="20" as="alternateBounds" />
          </mxGeometry>
        </mxCell>
        <mxCell id="syeNH5UYueC8ENAQt5Jf-60" value="place: VARCHAR" style="shape=partialRectangle;connectable=0;fillColor=none;top=0;left=0;bottom=0;right=0;align=left;spacingLeft=6;overflow=hidden;" vertex="1" parent="syeNH5UYueC8ENAQt5Jf-58">
          <mxGeometry x="40" width="160" height="20" as="geometry">
            <mxRectangle width="160" height="20" as="alternateBounds" />
          </mxGeometry>
        </mxCell>
        <mxCell id="syeNH5UYueC8ENAQt5Jf-61" value="" style="shape=partialRectangle;collapsible=0;dropTarget=0;pointerEvents=0;fillColor=none;top=0;left=0;bottom=0;right=0;points=[[0,0.5],[1,0.5]];portConstraint=eastwest;" vertex="1" parent="syeNH5UYueC8ENAQt5Jf-48">
          <mxGeometry y="100" width="200" height="20" as="geometry" />
        </mxCell>
        <mxCell id="syeNH5UYueC8ENAQt5Jf-62" value="" style="shape=partialRectangle;connectable=0;fillColor=none;top=0;left=0;bottom=0;right=0;editable=1;overflow=hidden;" vertex="1" parent="syeNH5UYueC8ENAQt5Jf-61">
          <mxGeometry width="40" height="20" as="geometry">
            <mxRectangle width="40" height="20" as="alternateBounds" />
          </mxGeometry>
        </mxCell>
        <mxCell id="syeNH5UYueC8ENAQt5Jf-63" value="amount: FLOAT" style="shape=partialRectangle;connectable=0;fillColor=none;top=0;left=0;bottom=0;right=0;align=left;spacingLeft=6;overflow=hidden;" vertex="1" parent="syeNH5UYueC8ENAQt5Jf-61">
          <mxGeometry x="40" width="160" height="20" as="geometry">
            <mxRectangle width="160" height="20" as="alternateBounds" />
          </mxGeometry>
        </mxCell>
        <mxCell id="syeNH5UYueC8ENAQt5Jf-64" value="" style="shape=partialRectangle;collapsible=0;dropTarget=0;pointerEvents=0;fillColor=none;top=0;left=0;bottom=0;right=0;points=[[0,0.5],[1,0.5]];portConstraint=eastwest;" vertex="1" parent="syeNH5UYueC8ENAQt5Jf-48">
          <mxGeometry y="120" width="200" height="20" as="geometry" />
        </mxCell>
        <mxCell id="syeNH5UYueC8ENAQt5Jf-65" value="" style="shape=partialRectangle;connectable=0;fillColor=none;top=0;left=0;bottom=0;right=0;editable=1;overflow=hidden;" vertex="1" parent="syeNH5UYueC8ENAQt5Jf-64">
          <mxGeometry width="40" height="20" as="geometry">
            <mxRectangle width="40" height="20" as="alternateBounds" />
          </mxGeometry>
        </mxCell>
        <mxCell id="syeNH5UYueC8ENAQt5Jf-66" value="payment: VARCHAR" style="shape=partialRectangle;connectable=0;fillColor=none;top=0;left=0;bottom=0;right=0;align=left;spacingLeft=6;overflow=hidden;" vertex="1" parent="syeNH5UYueC8ENAQt5Jf-64">
          <mxGeometry x="40" width="160" height="20" as="geometry">
            <mxRectangle width="160" height="20" as="alternateBounds" />
          </mxGeometry>
        </mxCell>
        <mxCell id="syeNH5UYueC8ENAQt5Jf-133" value="" style="shape=partialRectangle;collapsible=0;dropTarget=0;pointerEvents=0;fillColor=none;top=0;left=0;bottom=0;right=0;points=[[0,0.5],[1,0.5]];portConstraint=eastwest;" vertex="1" parent="syeNH5UYueC8ENAQt5Jf-48">
          <mxGeometry y="140" width="200" height="20" as="geometry" />
        </mxCell>
        <mxCell id="syeNH5UYueC8ENAQt5Jf-134" value="" style="shape=partialRectangle;connectable=0;fillColor=none;top=0;left=0;bottom=0;right=0;editable=1;overflow=hidden;" vertex="1" parent="syeNH5UYueC8ENAQt5Jf-133">
          <mxGeometry width="40" height="20" as="geometry">
            <mxRectangle width="40" height="20" as="alternateBounds" />
          </mxGeometry>
        </mxCell>
        <mxCell id="syeNH5UYueC8ENAQt5Jf-135" value="properties: JSON" style="shape=partialRectangle;connectable=0;fillColor=none;top=0;left=0;bottom=0;right=0;align=left;spacingLeft=6;overflow=hidden;" vertex="1" parent="syeNH5UYueC8ENAQt5Jf-133">
          <mxGeometry x="40" width="160" height="20" as="geometry">
            <mxRectangle width="160" height="20" as="alternateBounds" />
          </mxGeometry>
        </mxCell>
        <mxCell id="syeNH5UYueC8ENAQt5Jf-67" value="Deliver" style="shape=table;startSize=20;container=1;collapsible=1;childLayout=tableLayout;fixedRows=1;rowLines=0;fontStyle=1;align=center;resizeLast=1;" vertex="1" parent="1">
          <mxGeometry x="430" y="515" width="240" height="120" as="geometry">
            <mxRectangle x="480" y="380" width="80" height="30" as="alternateBounds" />
          </mxGeometry>
        </mxCell>
        <mxCell id="syeNH5UYueC8ENAQt5Jf-68" value="" style="shape=partialRectangle;collapsible=0;dropTarget=0;pointerEvents=0;fillColor=none;top=0;left=0;bottom=0;right=0;points=[[0,0.5],[1,0.5]];portConstraint=eastwest;" vertex="1" parent="syeNH5UYueC8ENAQt5Jf-67">
          <mxGeometry y="20" width="240" height="20" as="geometry" />
        </mxCell>
        <mxCell id="syeNH5UYueC8ENAQt5Jf-69" value="PK" style="shape=partialRectangle;connectable=0;fillColor=none;top=0;left=0;bottom=0;right=0;fontStyle=1;overflow=hidden;" vertex="1" parent="syeNH5UYueC8ENAQt5Jf-68">
          <mxGeometry width="40" height="20" as="geometry">
            <mxRectangle width="40" height="20" as="alternateBounds" />
          </mxGeometry>
        </mxCell>
        <mxCell id="syeNH5UYueC8ENAQt5Jf-70" value="id: INTEGER" style="shape=partialRectangle;connectable=0;fillColor=none;top=0;left=0;bottom=0;right=0;align=left;spacingLeft=6;fontStyle=5;overflow=hidden;" vertex="1" parent="syeNH5UYueC8ENAQt5Jf-68">
          <mxGeometry x="40" width="200" height="20" as="geometry">
            <mxRectangle width="200" height="20" as="alternateBounds" />
          </mxGeometry>
        </mxCell>
        <mxCell id="syeNH5UYueC8ENAQt5Jf-71" value="" style="shape=partialRectangle;collapsible=0;dropTarget=0;pointerEvents=0;fillColor=none;top=0;left=0;bottom=0;right=0;points=[[0,0.5],[1,0.5]];portConstraint=eastwest;" vertex="1" parent="syeNH5UYueC8ENAQt5Jf-67">
          <mxGeometry y="40" width="240" height="20" as="geometry" />
        </mxCell>
        <mxCell id="syeNH5UYueC8ENAQt5Jf-72" value="FK" style="shape=partialRectangle;connectable=0;fillColor=none;top=0;left=0;bottom=0;right=0;fontStyle=1;overflow=hidden;" vertex="1" parent="syeNH5UYueC8ENAQt5Jf-71">
          <mxGeometry width="40" height="20" as="geometry">
            <mxRectangle width="40" height="20" as="alternateBounds" />
          </mxGeometry>
        </mxCell>
        <mxCell id="syeNH5UYueC8ENAQt5Jf-73" value="itemId: INTEGER" style="shape=partialRectangle;connectable=0;fillColor=none;top=0;left=0;bottom=0;right=0;align=left;spacingLeft=6;fontStyle=5;overflow=hidden;" vertex="1" parent="syeNH5UYueC8ENAQt5Jf-71">
          <mxGeometry x="40" width="200" height="20" as="geometry">
            <mxRectangle width="200" height="20" as="alternateBounds" />
          </mxGeometry>
        </mxCell>
        <mxCell id="syeNH5UYueC8ENAQt5Jf-74" value="" style="shape=partialRectangle;collapsible=0;dropTarget=0;pointerEvents=0;fillColor=none;top=0;left=0;bottom=1;right=0;points=[[0,0.5],[1,0.5]];portConstraint=eastwest;" vertex="1" parent="syeNH5UYueC8ENAQt5Jf-67">
          <mxGeometry y="60" width="240" height="20" as="geometry" />
        </mxCell>
        <mxCell id="syeNH5UYueC8ENAQt5Jf-75" value="FK" style="shape=partialRectangle;connectable=0;fillColor=none;top=0;left=0;bottom=0;right=0;fontStyle=1;overflow=hidden;" vertex="1" parent="syeNH5UYueC8ENAQt5Jf-74">
          <mxGeometry width="40" height="20" as="geometry">
            <mxRectangle width="40" height="20" as="alternateBounds" />
          </mxGeometry>
        </mxCell>
        <mxCell id="syeNH5UYueC8ENAQt5Jf-76" value="requestId: INTEGER" style="shape=partialRectangle;connectable=0;fillColor=none;top=0;left=0;bottom=0;right=0;align=left;spacingLeft=6;fontStyle=5;overflow=hidden;" vertex="1" parent="syeNH5UYueC8ENAQt5Jf-74">
          <mxGeometry x="40" width="200" height="20" as="geometry">
            <mxRectangle width="200" height="20" as="alternateBounds" />
          </mxGeometry>
        </mxCell>
        <mxCell id="syeNH5UYueC8ENAQt5Jf-77" value="" style="shape=partialRectangle;collapsible=0;dropTarget=0;pointerEvents=0;fillColor=none;top=0;left=0;bottom=0;right=0;points=[[0,0.5],[1,0.5]];portConstraint=eastwest;" vertex="1" parent="syeNH5UYueC8ENAQt5Jf-67">
          <mxGeometry y="80" width="240" height="20" as="geometry" />
        </mxCell>
        <mxCell id="syeNH5UYueC8ENAQt5Jf-78" value="" style="shape=partialRectangle;connectable=0;fillColor=none;top=0;left=0;bottom=0;right=0;editable=1;overflow=hidden;" vertex="1" parent="syeNH5UYueC8ENAQt5Jf-77">
          <mxGeometry width="40" height="20" as="geometry">
            <mxRectangle width="40" height="20" as="alternateBounds" />
          </mxGeometry>
        </mxCell>
        <mxCell id="syeNH5UYueC8ENAQt5Jf-79" value="state: INTEGER" style="shape=partialRectangle;connectable=0;fillColor=none;top=0;left=0;bottom=0;right=0;align=left;spacingLeft=6;overflow=hidden;" vertex="1" parent="syeNH5UYueC8ENAQt5Jf-77">
          <mxGeometry x="40" width="200" height="20" as="geometry">
            <mxRectangle width="200" height="20" as="alternateBounds" />
          </mxGeometry>
        </mxCell>
        <mxCell id="syeNH5UYueC8ENAQt5Jf-86" value="" style="shape=partialRectangle;collapsible=0;dropTarget=0;pointerEvents=0;fillColor=none;top=0;left=0;bottom=0;right=0;points=[[0,0.5],[1,0.5]];portConstraint=eastwest;" vertex="1" parent="syeNH5UYueC8ENAQt5Jf-67">
          <mxGeometry y="100" width="240" height="20" as="geometry" />
        </mxCell>
        <mxCell id="syeNH5UYueC8ENAQt5Jf-87" value="" style="shape=partialRectangle;connectable=0;fillColor=none;top=0;left=0;bottom=0;right=0;editable=1;overflow=hidden;" vertex="1" parent="syeNH5UYueC8ENAQt5Jf-86">
          <mxGeometry width="40" height="20" as="geometry">
            <mxRectangle width="40" height="20" as="alternateBounds" />
          </mxGeometry>
        </mxCell>
        <mxCell id="syeNH5UYueC8ENAQt5Jf-88" value="properties: JSON" style="shape=partialRectangle;connectable=0;fillColor=none;top=0;left=0;bottom=0;right=0;align=left;spacingLeft=6;overflow=hidden;" vertex="1" parent="syeNH5UYueC8ENAQt5Jf-86">
          <mxGeometry x="40" width="200" height="20" as="geometry">
            <mxRectangle width="200" height="20" as="alternateBounds" />
          </mxGeometry>
        </mxCell>
        <mxCell id="syeNH5UYueC8ENAQt5Jf-143" style="edgeStyle=orthogonalEdgeStyle;rounded=0;sketch=0;orthogonalLoop=1;jettySize=auto;html=1;exitX=0.5;exitY=1;exitDx=0;exitDy=0;entryX=0.5;entryY=0;entryDx=0;entryDy=0;fontFamily=Lucida Console;endArrow=ERmany;endFill=0;" edge="1" parent="1" source="syeNH5UYueC8ENAQt5Jf-93" target="syeNH5UYueC8ENAQt5Jf-48">
          <mxGeometry relative="1" as="geometry" />
        </mxCell>
        <mxCell id="syeNH5UYueC8ENAQt5Jf-93" value="Client" style="shape=table;startSize=20;container=1;collapsible=1;childLayout=tableLayout;fixedRows=1;rowLines=0;fontStyle=1;align=center;resizeLast=1;" vertex="1" parent="1">
          <mxGeometry x="750" y="195" width="200" height="220" as="geometry" />
        </mxCell>
        <mxCell id="syeNH5UYueC8ENAQt5Jf-94" value="" style="shape=partialRectangle;collapsible=0;dropTarget=0;pointerEvents=0;fillColor=none;top=0;left=0;bottom=1;right=0;points=[[0,0.5],[1,0.5]];portConstraint=eastwest;" vertex="1" parent="syeNH5UYueC8ENAQt5Jf-93">
          <mxGeometry y="20" width="200" height="20" as="geometry" />
        </mxCell>
        <mxCell id="syeNH5UYueC8ENAQt5Jf-95" value="PK" style="shape=partialRectangle;connectable=0;fillColor=none;top=0;left=0;bottom=0;right=0;fontStyle=1;overflow=hidden;" vertex="1" parent="syeNH5UYueC8ENAQt5Jf-94">
          <mxGeometry width="40" height="20" as="geometry">
            <mxRectangle width="40" height="20" as="alternateBounds" />
          </mxGeometry>
        </mxCell>
        <mxCell id="syeNH5UYueC8ENAQt5Jf-96" value="id: INTEGER" style="shape=partialRectangle;connectable=0;fillColor=none;top=0;left=0;bottom=0;right=0;align=left;spacingLeft=6;fontStyle=5;overflow=hidden;" vertex="1" parent="syeNH5UYueC8ENAQt5Jf-94">
          <mxGeometry x="40" width="160" height="20" as="geometry">
            <mxRectangle width="160" height="20" as="alternateBounds" />
          </mxGeometry>
        </mxCell>
        <mxCell id="syeNH5UYueC8ENAQt5Jf-97" value="" style="shape=partialRectangle;collapsible=0;dropTarget=0;pointerEvents=0;fillColor=none;top=0;left=0;bottom=0;right=0;points=[[0,0.5],[1,0.5]];portConstraint=eastwest;" vertex="1" parent="syeNH5UYueC8ENAQt5Jf-93">
          <mxGeometry y="40" width="200" height="20" as="geometry" />
        </mxCell>
        <mxCell id="syeNH5UYueC8ENAQt5Jf-98" value="" style="shape=partialRectangle;connectable=0;fillColor=none;top=0;left=0;bottom=0;right=0;editable=1;overflow=hidden;" vertex="1" parent="syeNH5UYueC8ENAQt5Jf-97">
          <mxGeometry width="40" height="20" as="geometry">
            <mxRectangle width="40" height="20" as="alternateBounds" />
          </mxGeometry>
        </mxCell>
        <mxCell id="syeNH5UYueC8ENAQt5Jf-99" value="name: VARCHAR" style="shape=partialRectangle;connectable=0;fillColor=none;top=0;left=0;bottom=0;right=0;align=left;spacingLeft=6;overflow=hidden;" vertex="1" parent="syeNH5UYueC8ENAQt5Jf-97">
          <mxGeometry x="40" width="160" height="20" as="geometry">
            <mxRectangle width="160" height="20" as="alternateBounds" />
          </mxGeometry>
        </mxCell>
        <mxCell id="syeNH5UYueC8ENAQt5Jf-100" value="" style="shape=partialRectangle;collapsible=0;dropTarget=0;pointerEvents=0;fillColor=none;top=0;left=0;bottom=0;right=0;points=[[0,0.5],[1,0.5]];portConstraint=eastwest;" vertex="1" parent="syeNH5UYueC8ENAQt5Jf-93">
          <mxGeometry y="60" width="200" height="20" as="geometry" />
        </mxCell>
        <mxCell id="syeNH5UYueC8ENAQt5Jf-101" value="" style="shape=partialRectangle;connectable=0;fillColor=none;top=0;left=0;bottom=0;right=0;editable=1;overflow=hidden;" vertex="1" parent="syeNH5UYueC8ENAQt5Jf-100">
          <mxGeometry width="40" height="20" as="geometry">
            <mxRectangle width="40" height="20" as="alternateBounds" />
          </mxGeometry>
        </mxCell>
        <mxCell id="syeNH5UYueC8ENAQt5Jf-102" value="rut: VARCHAR" style="shape=partialRectangle;connectable=0;fillColor=none;top=0;left=0;bottom=0;right=0;align=left;spacingLeft=6;overflow=hidden;" vertex="1" parent="syeNH5UYueC8ENAQt5Jf-100">
          <mxGeometry x="40" width="160" height="20" as="geometry">
            <mxRectangle width="160" height="20" as="alternateBounds" />
          </mxGeometry>
        </mxCell>
        <mxCell id="syeNH5UYueC8ENAQt5Jf-103" value="" style="shape=partialRectangle;collapsible=0;dropTarget=0;pointerEvents=0;fillColor=none;top=0;left=0;bottom=0;right=0;points=[[0,0.5],[1,0.5]];portConstraint=eastwest;" vertex="1" parent="syeNH5UYueC8ENAQt5Jf-93">
          <mxGeometry y="80" width="200" height="20" as="geometry" />
        </mxCell>
        <mxCell id="syeNH5UYueC8ENAQt5Jf-104" value="" style="shape=partialRectangle;connectable=0;fillColor=none;top=0;left=0;bottom=0;right=0;editable=1;overflow=hidden;" vertex="1" parent="syeNH5UYueC8ENAQt5Jf-103">
          <mxGeometry width="40" height="20" as="geometry">
            <mxRectangle width="40" height="20" as="alternateBounds" />
          </mxGeometry>
        </mxCell>
        <mxCell id="syeNH5UYueC8ENAQt5Jf-105" value="email: VARCHAR" style="shape=partialRectangle;connectable=0;fillColor=none;top=0;left=0;bottom=0;right=0;align=left;spacingLeft=6;overflow=hidden;" vertex="1" parent="syeNH5UYueC8ENAQt5Jf-103">
          <mxGeometry x="40" width="160" height="20" as="geometry">
            <mxRectangle width="160" height="20" as="alternateBounds" />
          </mxGeometry>
        </mxCell>
        <mxCell id="syeNH5UYueC8ENAQt5Jf-106" value="" style="shape=partialRectangle;collapsible=0;dropTarget=0;pointerEvents=0;fillColor=none;top=0;left=0;bottom=0;right=0;points=[[0,0.5],[1,0.5]];portConstraint=eastwest;" vertex="1" parent="syeNH5UYueC8ENAQt5Jf-93">
          <mxGeometry y="100" width="200" height="20" as="geometry" />
        </mxCell>
        <mxCell id="syeNH5UYueC8ENAQt5Jf-107" value="" style="shape=partialRectangle;connectable=0;fillColor=none;top=0;left=0;bottom=0;right=0;editable=1;overflow=hidden;" vertex="1" parent="syeNH5UYueC8ENAQt5Jf-106">
          <mxGeometry width="40" height="20" as="geometry">
            <mxRectangle width="40" height="20" as="alternateBounds" />
          </mxGeometry>
        </mxCell>
        <mxCell id="syeNH5UYueC8ENAQt5Jf-108" value="phone: VARCHAR" style="shape=partialRectangle;connectable=0;fillColor=none;top=0;left=0;bottom=0;right=0;align=left;spacingLeft=6;overflow=hidden;" vertex="1" parent="syeNH5UYueC8ENAQt5Jf-106">
          <mxGeometry x="40" width="160" height="20" as="geometry">
            <mxRectangle width="160" height="20" as="alternateBounds" />
          </mxGeometry>
        </mxCell>
        <mxCell id="syeNH5UYueC8ENAQt5Jf-109" value="" style="shape=partialRectangle;collapsible=0;dropTarget=0;pointerEvents=0;fillColor=none;top=0;left=0;bottom=0;right=0;points=[[0,0.5],[1,0.5]];portConstraint=eastwest;" vertex="1" parent="syeNH5UYueC8ENAQt5Jf-93">
          <mxGeometry y="120" width="200" height="20" as="geometry" />
        </mxCell>
        <mxCell id="syeNH5UYueC8ENAQt5Jf-110" value="" style="shape=partialRectangle;connectable=0;fillColor=none;top=0;left=0;bottom=0;right=0;editable=1;overflow=hidden;" vertex="1" parent="syeNH5UYueC8ENAQt5Jf-109">
          <mxGeometry width="40" height="20" as="geometry">
            <mxRectangle width="40" height="20" as="alternateBounds" />
          </mxGeometry>
        </mxCell>
        <mxCell id="syeNH5UYueC8ENAQt5Jf-111" value="nationality: VARCHAR" style="shape=partialRectangle;connectable=0;fillColor=none;top=0;left=0;bottom=0;right=0;align=left;spacingLeft=6;overflow=hidden;" vertex="1" parent="syeNH5UYueC8ENAQt5Jf-109">
          <mxGeometry x="40" width="160" height="20" as="geometry">
            <mxRectangle width="160" height="20" as="alternateBounds" />
          </mxGeometry>
        </mxCell>
        <mxCell id="syeNH5UYueC8ENAQt5Jf-112" value="" style="shape=partialRectangle;collapsible=0;dropTarget=0;pointerEvents=0;fillColor=none;top=0;left=0;bottom=0;right=0;points=[[0,0.5],[1,0.5]];portConstraint=eastwest;" vertex="1" parent="syeNH5UYueC8ENAQt5Jf-93">
          <mxGeometry y="140" width="200" height="20" as="geometry" />
        </mxCell>
        <mxCell id="syeNH5UYueC8ENAQt5Jf-113" value="" style="shape=partialRectangle;connectable=0;fillColor=none;top=0;left=0;bottom=0;right=0;editable=1;overflow=hidden;" vertex="1" parent="syeNH5UYueC8ENAQt5Jf-112">
          <mxGeometry width="40" height="20" as="geometry">
            <mxRectangle width="40" height="20" as="alternateBounds" />
          </mxGeometry>
        </mxCell>
        <mxCell id="syeNH5UYueC8ENAQt5Jf-114" value="address: VARCHAR" style="shape=partialRectangle;connectable=0;fillColor=none;top=0;left=0;bottom=0;right=0;align=left;spacingLeft=6;overflow=hidden;" vertex="1" parent="syeNH5UYueC8ENAQt5Jf-112">
          <mxGeometry x="40" width="160" height="20" as="geometry">
            <mxRectangle width="160" height="20" as="alternateBounds" />
          </mxGeometry>
        </mxCell>
        <mxCell id="syeNH5UYueC8ENAQt5Jf-115" value="" style="shape=partialRectangle;collapsible=0;dropTarget=0;pointerEvents=0;fillColor=none;top=0;left=0;bottom=0;right=0;points=[[0,0.5],[1,0.5]];portConstraint=eastwest;" vertex="1" parent="syeNH5UYueC8ENAQt5Jf-93">
          <mxGeometry y="160" width="200" height="20" as="geometry" />
        </mxCell>
        <mxCell id="syeNH5UYueC8ENAQt5Jf-116" value="" style="shape=partialRectangle;connectable=0;fillColor=none;top=0;left=0;bottom=0;right=0;editable=1;overflow=hidden;" vertex="1" parent="syeNH5UYueC8ENAQt5Jf-115">
          <mxGeometry width="40" height="20" as="geometry">
            <mxRectangle width="40" height="20" as="alternateBounds" />
          </mxGeometry>
        </mxCell>
        <mxCell id="syeNH5UYueC8ENAQt5Jf-117" value="birthday: DATE" style="shape=partialRectangle;connectable=0;fillColor=none;top=0;left=0;bottom=0;right=0;align=left;spacingLeft=6;overflow=hidden;" vertex="1" parent="syeNH5UYueC8ENAQt5Jf-115">
          <mxGeometry x="40" width="160" height="20" as="geometry">
            <mxRectangle width="160" height="20" as="alternateBounds" />
          </mxGeometry>
        </mxCell>
        <mxCell id="syeNH5UYueC8ENAQt5Jf-118" value="" style="shape=partialRectangle;collapsible=0;dropTarget=0;pointerEvents=0;fillColor=none;top=0;left=0;bottom=0;right=0;points=[[0,0.5],[1,0.5]];portConstraint=eastwest;" vertex="1" parent="syeNH5UYueC8ENAQt5Jf-93">
          <mxGeometry y="180" width="200" height="20" as="geometry" />
        </mxCell>
        <mxCell id="syeNH5UYueC8ENAQt5Jf-119" value="" style="shape=partialRectangle;connectable=0;fillColor=none;top=0;left=0;bottom=0;right=0;editable=1;overflow=hidden;" vertex="1" parent="syeNH5UYueC8ENAQt5Jf-118">
          <mxGeometry width="40" height="20" as="geometry">
            <mxRectangle width="40" height="20" as="alternateBounds" />
          </mxGeometry>
        </mxCell>
        <mxCell id="syeNH5UYueC8ENAQt5Jf-120" value="password: VARCHAR" style="shape=partialRectangle;connectable=0;fillColor=none;top=0;left=0;bottom=0;right=0;align=left;spacingLeft=6;overflow=hidden;" vertex="1" parent="syeNH5UYueC8ENAQt5Jf-118">
          <mxGeometry x="40" width="160" height="20" as="geometry">
            <mxRectangle width="160" height="20" as="alternateBounds" />
          </mxGeometry>
        </mxCell>
        <mxCell id="syeNH5UYueC8ENAQt5Jf-127" value="" style="shape=partialRectangle;collapsible=0;dropTarget=0;pointerEvents=0;fillColor=none;top=0;left=0;bottom=0;right=0;points=[[0,0.5],[1,0.5]];portConstraint=eastwest;" vertex="1" parent="syeNH5UYueC8ENAQt5Jf-93">
          <mxGeometry y="200" width="200" height="20" as="geometry" />
        </mxCell>
        <mxCell id="syeNH5UYueC8ENAQt5Jf-128" value="" style="shape=partialRectangle;connectable=0;fillColor=none;top=0;left=0;bottom=0;right=0;editable=1;overflow=hidden;" vertex="1" parent="syeNH5UYueC8ENAQt5Jf-127">
          <mxGeometry width="40" height="20" as="geometry">
            <mxRectangle width="40" height="20" as="alternateBounds" />
          </mxGeometry>
        </mxCell>
        <mxCell id="syeNH5UYueC8ENAQt5Jf-129" value="properties: JSON" style="shape=partialRectangle;connectable=0;fillColor=none;top=0;left=0;bottom=0;right=0;align=left;spacingLeft=6;overflow=hidden;" vertex="1" parent="syeNH5UYueC8ENAQt5Jf-127">
          <mxGeometry x="40" width="160" height="20" as="geometry">
            <mxRectangle width="160" height="20" as="alternateBounds" />
          </mxGeometry>
        </mxCell>
      </root>
    </mxGraphModel>
  </diagram>
  <diagram id="1ZWUvpXAR29iExhCB06b" name="Class Diagram">
    <mxGraphModel dx="1912" dy="162" grid="1" gridSize="10" guides="1" tooltips="1" connect="1" arrows="1" fold="1" page="1" pageScale="1" pageWidth="1100" pageHeight="850" math="0" shadow="0">
      <root>
        <mxCell id="0" />
        <mxCell id="1" parent="0" />
        <mxCell id="d_gIj7sqGyqCKvbwmr9H-1" value="Module" style="swimlane;fontStyle=1;align=center;verticalAlign=middle;childLayout=stackLayout;horizontal=1;startSize=40;horizontalStack=0;resizeParent=1;resizeParentMax=0;resizeLast=0;collapsible=1;marginBottom=0;strokeWidth=2;" vertex="1" parent="1">
          <mxGeometry x="470" y="935" width="160" height="120" as="geometry">
            <mxRectangle x="480" y="900" width="160" height="40" as="alternateBounds" />
          </mxGeometry>
        </mxCell>
        <mxCell id="d_gIj7sqGyqCKvbwmr9H-2" value="" style="line;strokeWidth=2;fillColor=none;align=left;verticalAlign=top;spacingTop=-1;spacingLeft=3;spacingRight=3;rotatable=0;labelPosition=right;points=[];portConstraint=eastwest;" vertex="1" parent="d_gIj7sqGyqCKvbwmr9H-1">
          <mxGeometry y="40" width="160" height="10" as="geometry" />
        </mxCell>
        <mxCell id="d_gIj7sqGyqCKvbwmr9H-3" value="+ imports()" style="text;strokeColor=none;fillColor=none;align=left;verticalAlign=top;spacingLeft=4;spacingRight=4;overflow=hidden;rotatable=0;points=[[0,0.5],[1,0.5]];portConstraint=eastwest;strokeWidth=2;" vertex="1" parent="d_gIj7sqGyqCKvbwmr9H-1">
          <mxGeometry y="50" width="160" height="20" as="geometry" />
        </mxCell>
        <mxCell id="d_gIj7sqGyqCKvbwmr9H-4" value="+ providers()" style="text;strokeColor=none;fillColor=none;align=left;verticalAlign=top;spacingLeft=4;spacingRight=4;overflow=hidden;rotatable=0;points=[[0,0.5],[1,0.5]];portConstraint=eastwest;strokeWidth=2;" vertex="1" parent="d_gIj7sqGyqCKvbwmr9H-1">
          <mxGeometry y="70" width="160" height="20" as="geometry" />
        </mxCell>
        <mxCell id="d_gIj7sqGyqCKvbwmr9H-5" value="+ controllers()" style="text;strokeColor=none;fillColor=none;align=left;verticalAlign=top;spacingLeft=4;spacingRight=4;overflow=hidden;rotatable=0;points=[[0,0.5],[1,0.5]];portConstraint=eastwest;strokeWidth=2;" vertex="1" parent="d_gIj7sqGyqCKvbwmr9H-1">
          <mxGeometry y="90" width="160" height="30" as="geometry" />
        </mxCell>
        <mxCell id="d_gIj7sqGyqCKvbwmr9H-6" style="edgeStyle=orthogonalEdgeStyle;rounded=0;orthogonalLoop=1;jettySize=auto;html=1;exitX=0.5;exitY=0;exitDx=0;exitDy=0;entryX=0.5;entryY=1;entryDx=0;entryDy=0;endArrow=diamondThin;endFill=1;strokeWidth=2;fontFamily=Times New Roman;fontSize=13;endSize=12;verticalAlign=top;" edge="1" parent="1" source="d_gIj7sqGyqCKvbwmr9H-7" target="d_gIj7sqGyqCKvbwmr9H-1">
          <mxGeometry relative="1" as="geometry" />
        </mxCell>
        <mxCell id="d_gIj7sqGyqCKvbwmr9H-7" value="Controller" style="swimlane;fontStyle=1;align=center;verticalAlign=middle;childLayout=stackLayout;horizontal=1;startSize=40;horizontalStack=0;resizeParent=1;resizeParentMax=0;resizeLast=0;collapsible=1;marginBottom=0;strokeWidth=2;" vertex="1" parent="1">
          <mxGeometry x="470" y="1095" width="160" height="160" as="geometry">
            <mxRectangle x="480" y="1060" width="160" height="40" as="alternateBounds" />
          </mxGeometry>
        </mxCell>
        <mxCell id="d_gIj7sqGyqCKvbwmr9H-8" value="- prefix" style="text;strokeColor=none;fillColor=none;align=left;verticalAlign=top;spacingLeft=4;spacingRight=4;overflow=hidden;rotatable=0;points=[[0,0.5],[1,0.5]];portConstraint=eastwest;strokeWidth=2;" vertex="1" parent="d_gIj7sqGyqCKvbwmr9H-7">
          <mxGeometry y="40" width="160" height="20" as="geometry" />
        </mxCell>
        <mxCell id="d_gIj7sqGyqCKvbwmr9H-9" value="" style="line;strokeWidth=2;fillColor=none;align=left;verticalAlign=top;spacingTop=-1;spacingLeft=3;spacingRight=3;rotatable=0;labelPosition=right;points=[];portConstraint=eastwest;" vertex="1" parent="d_gIj7sqGyqCKvbwmr9H-7">
          <mxGeometry y="60" width="160" height="10" as="geometry" />
        </mxCell>
        <mxCell id="d_gIj7sqGyqCKvbwmr9H-10" value="+ Get()" style="text;strokeColor=none;fillColor=none;align=left;verticalAlign=top;spacingLeft=4;spacingRight=4;overflow=hidden;rotatable=0;points=[[0,0.5],[1,0.5]];portConstraint=eastwest;strokeWidth=2;" vertex="1" parent="d_gIj7sqGyqCKvbwmr9H-7">
          <mxGeometry y="70" width="160" height="20" as="geometry" />
        </mxCell>
        <mxCell id="d_gIj7sqGyqCKvbwmr9H-11" value="+ Post()" style="text;strokeColor=none;fillColor=none;align=left;verticalAlign=top;spacingLeft=4;spacingRight=4;overflow=hidden;rotatable=0;points=[[0,0.5],[1,0.5]];portConstraint=eastwest;strokeWidth=2;" vertex="1" parent="d_gIj7sqGyqCKvbwmr9H-7">
          <mxGeometry y="90" width="160" height="20" as="geometry" />
        </mxCell>
        <mxCell id="d_gIj7sqGyqCKvbwmr9H-12" value="+ Put()" style="text;strokeColor=none;fillColor=none;align=left;verticalAlign=top;spacingLeft=4;spacingRight=4;overflow=hidden;rotatable=0;points=[[0,0.5],[1,0.5]];portConstraint=eastwest;strokeWidth=2;" vertex="1" parent="d_gIj7sqGyqCKvbwmr9H-7">
          <mxGeometry y="110" width="160" height="20" as="geometry" />
        </mxCell>
        <mxCell id="d_gIj7sqGyqCKvbwmr9H-13" value="+ Delete()" style="text;strokeColor=none;fillColor=none;align=left;verticalAlign=top;spacingLeft=4;spacingRight=4;overflow=hidden;rotatable=0;points=[[0,0.5],[1,0.5]];portConstraint=eastwest;strokeWidth=2;" vertex="1" parent="d_gIj7sqGyqCKvbwmr9H-7">
          <mxGeometry y="130" width="160" height="30" as="geometry" />
        </mxCell>
        <mxCell id="d_gIj7sqGyqCKvbwmr9H-14" style="edgeStyle=orthogonalEdgeStyle;rounded=0;orthogonalLoop=1;jettySize=auto;html=1;exitX=0.5;exitY=0;exitDx=0;exitDy=0;entryX=0.5;entryY=1;entryDx=0;entryDy=0;startSize=8;endArrow=diamondThin;endFill=1;endSize=12;strokeWidth=2;fontFamily=Times New Roman;fontSize=13;verticalAlign=top;" edge="1" parent="1" source="d_gIj7sqGyqCKvbwmr9H-15" target="d_gIj7sqGyqCKvbwmr9H-7">
          <mxGeometry relative="1" as="geometry" />
        </mxCell>
        <mxCell id="d_gIj7sqGyqCKvbwmr9H-15" value="Service" style="swimlane;fontStyle=1;align=center;verticalAlign=middle;childLayout=stackLayout;horizontal=1;startSize=40;horizontalStack=0;resizeParent=1;resizeParentMax=0;resizeLast=0;collapsible=1;marginBottom=0;strokeWidth=2;" vertex="1" parent="1">
          <mxGeometry x="470" y="1295" width="160" height="140" as="geometry">
            <mxRectangle x="480" y="1260" width="160" height="40" as="alternateBounds" />
          </mxGeometry>
        </mxCell>
        <mxCell id="d_gIj7sqGyqCKvbwmr9H-16" value="" style="line;strokeWidth=2;fillColor=none;align=left;verticalAlign=top;spacingTop=-1;spacingLeft=3;spacingRight=3;rotatable=0;labelPosition=right;points=[];portConstraint=eastwest;" vertex="1" parent="d_gIj7sqGyqCKvbwmr9H-15">
          <mxGeometry y="40" width="160" height="10" as="geometry" />
        </mxCell>
        <mxCell id="d_gIj7sqGyqCKvbwmr9H-17" value="+ endpoint1()" style="text;strokeColor=none;fillColor=none;align=left;verticalAlign=top;spacingLeft=4;spacingRight=4;overflow=hidden;rotatable=0;points=[[0,0.5],[1,0.5]];portConstraint=eastwest;strokeWidth=2;" vertex="1" parent="d_gIj7sqGyqCKvbwmr9H-15">
          <mxGeometry y="50" width="160" height="20" as="geometry" />
        </mxCell>
        <mxCell id="d_gIj7sqGyqCKvbwmr9H-18" value="+ endpoint2()" style="text;strokeColor=none;fillColor=none;align=left;verticalAlign=top;spacingLeft=4;spacingRight=4;overflow=hidden;rotatable=0;points=[[0,0.5],[1,0.5]];portConstraint=eastwest;strokeWidth=2;" vertex="1" parent="d_gIj7sqGyqCKvbwmr9H-15">
          <mxGeometry y="70" width="160" height="20" as="geometry" />
        </mxCell>
        <mxCell id="d_gIj7sqGyqCKvbwmr9H-19" value="+ endpoint3()" style="text;strokeColor=none;fillColor=none;align=left;verticalAlign=top;spacingLeft=4;spacingRight=4;overflow=hidden;rotatable=0;points=[[0,0.5],[1,0.5]];portConstraint=eastwest;strokeWidth=2;" vertex="1" parent="d_gIj7sqGyqCKvbwmr9H-15">
          <mxGeometry y="90" width="160" height="20" as="geometry" />
        </mxCell>
        <mxCell id="d_gIj7sqGyqCKvbwmr9H-20" value="+ endpoint4()" style="text;strokeColor=none;fillColor=none;align=left;verticalAlign=top;spacingLeft=4;spacingRight=4;overflow=hidden;rotatable=0;points=[[0,0.5],[1,0.5]];portConstraint=eastwest;strokeWidth=2;" vertex="1" parent="d_gIj7sqGyqCKvbwmr9H-15">
          <mxGeometry y="110" width="160" height="30" as="geometry" />
        </mxCell>
        <mxCell id="d_gIj7sqGyqCKvbwmr9H-21" style="edgeStyle=orthogonalEdgeStyle;rounded=0;orthogonalLoop=1;jettySize=auto;html=1;exitX=1;exitY=0.5;exitDx=0;exitDy=0;entryX=0;entryY=0.25;entryDx=0;entryDy=0;startSize=8;endArrow=diamondThin;endFill=1;endSize=12;strokeWidth=2;fontFamily=Times New Roman;fontSize=13;verticalAlign=top;" edge="1" parent="1" source="d_gIj7sqGyqCKvbwmr9H-22" target="d_gIj7sqGyqCKvbwmr9H-7">
          <mxGeometry relative="1" as="geometry" />
        </mxCell>
        <mxCell id="d_gIj7sqGyqCKvbwmr9H-22" value="Guard" style="swimlane;fontStyle=1;align=center;verticalAlign=middle;childLayout=stackLayout;horizontal=1;startSize=40;horizontalStack=0;resizeParent=1;resizeParentMax=0;resizeLast=0;collapsible=1;marginBottom=0;strokeWidth=2;" vertex="1" parent="1">
          <mxGeometry x="230" y="1095" width="160" height="80" as="geometry">
            <mxRectangle x="240" y="1059" width="160" height="40" as="alternateBounds" />
          </mxGeometry>
        </mxCell>
        <mxCell id="d_gIj7sqGyqCKvbwmr9H-23" value="" style="line;strokeWidth=2;fillColor=none;align=left;verticalAlign=top;spacingTop=-1;spacingLeft=3;spacingRight=3;rotatable=0;labelPosition=right;points=[];portConstraint=eastwest;" vertex="1" parent="d_gIj7sqGyqCKvbwmr9H-22">
          <mxGeometry y="40" width="160" height="10" as="geometry" />
        </mxCell>
        <mxCell id="d_gIj7sqGyqCKvbwmr9H-24" value="+ validateRequest()" style="text;strokeColor=none;fillColor=none;align=left;verticalAlign=top;spacingLeft=4;spacingRight=4;overflow=hidden;rotatable=0;points=[[0,0.5],[1,0.5]];portConstraint=eastwest;strokeWidth=2;" vertex="1" parent="d_gIj7sqGyqCKvbwmr9H-22">
          <mxGeometry y="50" width="160" height="30" as="geometry" />
        </mxCell>
        <mxCell id="d_gIj7sqGyqCKvbwmr9H-25" style="edgeStyle=orthogonalEdgeStyle;rounded=0;orthogonalLoop=1;jettySize=auto;html=1;exitX=0.5;exitY=0;exitDx=0;exitDy=0;entryX=0.5;entryY=1;entryDx=0;entryDy=0;startSize=8;endArrow=diamondThin;endFill=1;endSize=12;strokeWidth=2;fontFamily=Times New Roman;fontSize=13;verticalAlign=top;" edge="1" parent="1" source="d_gIj7sqGyqCKvbwmr9H-26" target="d_gIj7sqGyqCKvbwmr9H-15">
          <mxGeometry relative="1" as="geometry" />
        </mxCell>
        <mxCell id="d_gIj7sqGyqCKvbwmr9H-26" value="Model" style="swimlane;fontStyle=1;align=center;verticalAlign=middle;childLayout=stackLayout;horizontal=1;startSize=40;horizontalStack=0;resizeParent=1;resizeParentMax=0;resizeLast=0;collapsible=1;marginBottom=0;strokeWidth=2;" vertex="1" parent="1">
          <mxGeometry x="470" y="1475" width="160" height="140" as="geometry">
            <mxRectangle x="480" y="1440" width="160" height="40" as="alternateBounds" />
          </mxGeometry>
        </mxCell>
        <mxCell id="d_gIj7sqGyqCKvbwmr9H-27" value="- attribute1" style="text;strokeColor=none;fillColor=none;align=left;verticalAlign=top;spacingLeft=4;spacingRight=4;overflow=hidden;rotatable=0;points=[[0,0.5],[1,0.5]];portConstraint=eastwest;strokeWidth=2;" vertex="1" parent="d_gIj7sqGyqCKvbwmr9H-26">
          <mxGeometry y="40" width="160" height="20" as="geometry" />
        </mxCell>
        <mxCell id="d_gIj7sqGyqCKvbwmr9H-28" value="- attribute2" style="text;strokeColor=none;fillColor=none;align=left;verticalAlign=top;spacingLeft=4;spacingRight=4;overflow=hidden;rotatable=0;points=[[0,0.5],[1,0.5]];portConstraint=eastwest;strokeWidth=2;" vertex="1" parent="d_gIj7sqGyqCKvbwmr9H-26">
          <mxGeometry y="60" width="160" height="20" as="geometry" />
        </mxCell>
        <mxCell id="d_gIj7sqGyqCKvbwmr9H-29" value="- attribute3" style="text;strokeColor=none;fillColor=none;align=left;verticalAlign=top;spacingLeft=4;spacingRight=4;overflow=hidden;rotatable=0;points=[[0,0.5],[1,0.5]];portConstraint=eastwest;strokeWidth=2;" vertex="1" parent="d_gIj7sqGyqCKvbwmr9H-26">
          <mxGeometry y="80" width="160" height="20" as="geometry" />
        </mxCell>
        <mxCell id="d_gIj7sqGyqCKvbwmr9H-30" value="- attribute4" style="text;strokeColor=none;fillColor=none;align=left;verticalAlign=top;spacingLeft=4;spacingRight=4;overflow=hidden;rotatable=0;points=[[0,0.5],[1,0.5]];portConstraint=eastwest;strokeWidth=2;" vertex="1" parent="d_gIj7sqGyqCKvbwmr9H-26">
          <mxGeometry y="100" width="160" height="30" as="geometry" />
        </mxCell>
        <mxCell id="d_gIj7sqGyqCKvbwmr9H-31" value="" style="line;strokeWidth=2;fillColor=none;align=left;verticalAlign=top;spacingTop=-1;spacingLeft=3;spacingRight=3;rotatable=0;labelPosition=right;points=[];portConstraint=eastwest;" vertex="1" parent="d_gIj7sqGyqCKvbwmr9H-26">
          <mxGeometry y="130" width="160" height="10" as="geometry" />
        </mxCell>
        <mxCell id="d_gIj7sqGyqCKvbwmr9H-32" style="edgeStyle=orthogonalEdgeStyle;rounded=0;orthogonalLoop=1;jettySize=auto;html=1;exitX=1;exitY=0.25;exitDx=0;exitDy=0;entryX=0;entryY=0.5;entryDx=0;entryDy=0;startSize=8;endArrow=diamondThin;endFill=1;endSize=12;strokeWidth=2;fontFamily=Times New Roman;fontSize=13;verticalAlign=top;" edge="1" parent="1" source="d_gIj7sqGyqCKvbwmr9H-34" target="d_gIj7sqGyqCKvbwmr9H-15">
          <mxGeometry relative="1" as="geometry" />
        </mxCell>
        <mxCell id="d_gIj7sqGyqCKvbwmr9H-33" style="edgeStyle=orthogonalEdgeStyle;rounded=0;orthogonalLoop=1;jettySize=auto;html=1;exitX=1;exitY=0.75;exitDx=0;exitDy=0;entryX=0;entryY=0.5;entryDx=0;entryDy=0;startSize=8;endArrow=diamondThin;endFill=1;endSize=12;strokeWidth=2;fontFamily=Times New Roman;fontSize=13;verticalAlign=top;" edge="1" parent="1" source="d_gIj7sqGyqCKvbwmr9H-34" target="d_gIj7sqGyqCKvbwmr9H-26">
          <mxGeometry relative="1" as="geometry" />
        </mxCell>
        <mxCell id="d_gIj7sqGyqCKvbwmr9H-34" value="Sequelize" style="swimlane;fontStyle=1;align=center;verticalAlign=middle;childLayout=stackLayout;horizontal=1;startSize=40;horizontalStack=0;resizeParent=1;resizeParentMax=0;resizeLast=0;collapsible=1;marginBottom=0;strokeWidth=2;" vertex="1" parent="1">
          <mxGeometry x="230" y="1335" width="160" height="220" as="geometry">
            <mxRectangle x="240" y="1360" width="160" height="40" as="alternateBounds" />
          </mxGeometry>
        </mxCell>
        <mxCell id="d_gIj7sqGyqCKvbwmr9H-35" value="" style="line;strokeWidth=2;fillColor=none;align=left;verticalAlign=top;spacingTop=-1;spacingLeft=3;spacingRight=3;rotatable=0;labelPosition=right;points=[];portConstraint=eastwest;" vertex="1" parent="d_gIj7sqGyqCKvbwmr9H-34">
          <mxGeometry y="40" width="160" height="10" as="geometry" />
        </mxCell>
        <mxCell id="d_gIj7sqGyqCKvbwmr9H-36" value="+ InjectModel()" style="text;strokeColor=none;fillColor=none;align=left;verticalAlign=top;spacingLeft=4;spacingRight=4;overflow=hidden;rotatable=0;points=[[0,0.5],[1,0.5]];portConstraint=eastwest;strokeWidth=2;" vertex="1" parent="d_gIj7sqGyqCKvbwmr9H-34">
          <mxGeometry y="50" width="160" height="20" as="geometry" />
        </mxCell>
        <mxCell id="d_gIj7sqGyqCKvbwmr9H-37" value="+ Table()" style="text;strokeColor=none;fillColor=none;align=left;verticalAlign=top;spacingLeft=4;spacingRight=4;overflow=hidden;rotatable=0;points=[[0,0.5],[1,0.5]];portConstraint=eastwest;strokeWidth=2;" vertex="1" parent="d_gIj7sqGyqCKvbwmr9H-34">
          <mxGeometry y="70" width="160" height="20" as="geometry" />
        </mxCell>
        <mxCell id="d_gIj7sqGyqCKvbwmr9H-38" value="+ Column()" style="text;strokeColor=none;fillColor=none;align=left;verticalAlign=top;spacingLeft=4;spacingRight=4;overflow=hidden;rotatable=0;points=[[0,0.5],[1,0.5]];portConstraint=eastwest;strokeWidth=2;" vertex="1" parent="d_gIj7sqGyqCKvbwmr9H-34">
          <mxGeometry y="90" width="160" height="20" as="geometry" />
        </mxCell>
        <mxCell id="d_gIj7sqGyqCKvbwmr9H-39" value="+ AllowNull()" style="text;strokeColor=none;fillColor=none;align=left;verticalAlign=top;spacingLeft=4;spacingRight=4;overflow=hidden;rotatable=0;points=[[0,0.5],[1,0.5]];portConstraint=eastwest;strokeWidth=2;" vertex="1" parent="d_gIj7sqGyqCKvbwmr9H-34">
          <mxGeometry y="110" width="160" height="20" as="geometry" />
        </mxCell>
        <mxCell id="d_gIj7sqGyqCKvbwmr9H-40" value="+ ForeignKey()" style="text;strokeColor=none;fillColor=none;align=left;verticalAlign=top;spacingLeft=4;spacingRight=4;overflow=hidden;rotatable=0;points=[[0,0.5],[1,0.5]];portConstraint=eastwest;strokeWidth=2;" vertex="1" parent="d_gIj7sqGyqCKvbwmr9H-34">
          <mxGeometry y="130" width="160" height="20" as="geometry" />
        </mxCell>
        <mxCell id="d_gIj7sqGyqCKvbwmr9H-41" value="+ BelongsTo()" style="text;strokeColor=none;fillColor=none;align=left;verticalAlign=top;spacingLeft=4;spacingRight=4;overflow=hidden;rotatable=0;points=[[0,0.5],[1,0.5]];portConstraint=eastwest;strokeWidth=2;" vertex="1" parent="d_gIj7sqGyqCKvbwmr9H-34">
          <mxGeometry y="150" width="160" height="20" as="geometry" />
        </mxCell>
        <mxCell id="d_gIj7sqGyqCKvbwmr9H-42" value="+ HasMany()" style="text;strokeColor=none;fillColor=none;align=left;verticalAlign=top;spacingLeft=4;spacingRight=4;overflow=hidden;rotatable=0;points=[[0,0.5],[1,0.5]];portConstraint=eastwest;strokeWidth=2;" vertex="1" parent="d_gIj7sqGyqCKvbwmr9H-34">
          <mxGeometry y="170" width="160" height="20" as="geometry" />
        </mxCell>
        <mxCell id="d_gIj7sqGyqCKvbwmr9H-43" value="+ InjectModel()" style="text;strokeColor=none;fillColor=none;align=left;verticalAlign=top;spacingLeft=4;spacingRight=4;overflow=hidden;rotatable=0;points=[[0,0.5],[1,0.5]];portConstraint=eastwest;strokeWidth=2;" vertex="1" parent="d_gIj7sqGyqCKvbwmr9H-34">
          <mxGeometry y="190" width="160" height="30" as="geometry" />
        </mxCell>
        <mxCell id="d_gIj7sqGyqCKvbwmr9H-44" style="edgeStyle=orthogonalEdgeStyle;rounded=0;orthogonalLoop=1;jettySize=auto;html=1;exitX=1;exitY=0.5;exitDx=0;exitDy=0;entryX=0;entryY=0.75;entryDx=0;entryDy=0;startSize=8;endArrow=diamondThin;endFill=1;endSize=12;strokeWidth=2;fontFamily=Times New Roman;fontSize=13;verticalAlign=top;" edge="1" parent="1" source="d_gIj7sqGyqCKvbwmr9H-45" target="d_gIj7sqGyqCKvbwmr9H-7">
          <mxGeometry relative="1" as="geometry" />
        </mxCell>
        <mxCell id="d_gIj7sqGyqCKvbwmr9H-45" value="Interceptor" style="swimlane;fontStyle=1;align=center;verticalAlign=middle;childLayout=stackLayout;horizontal=1;startSize=40;horizontalStack=0;resizeParent=1;resizeParentMax=0;resizeLast=0;collapsible=1;marginBottom=0;strokeWidth=2;" vertex="1" parent="1">
          <mxGeometry x="230" y="1215" width="160" height="80" as="geometry">
            <mxRectangle x="240" y="1180" width="160" height="40" as="alternateBounds" />
          </mxGeometry>
        </mxCell>
        <mxCell id="d_gIj7sqGyqCKvbwmr9H-46" value="" style="line;strokeWidth=2;fillColor=none;align=left;verticalAlign=top;spacingTop=-1;spacingLeft=3;spacingRight=3;rotatable=0;labelPosition=right;points=[];portConstraint=eastwest;" vertex="1" parent="d_gIj7sqGyqCKvbwmr9H-45">
          <mxGeometry y="40" width="160" height="10" as="geometry" />
        </mxCell>
        <mxCell id="d_gIj7sqGyqCKvbwmr9H-47" value="+ fileInterceptor()" style="text;strokeColor=none;fillColor=none;align=left;verticalAlign=top;spacingLeft=4;spacingRight=4;overflow=hidden;rotatable=0;points=[[0,0.5],[1,0.5]];portConstraint=eastwest;strokeWidth=2;" vertex="1" parent="d_gIj7sqGyqCKvbwmr9H-45">
          <mxGeometry y="50" width="160" height="30" as="geometry" />
        </mxCell>
        <mxCell id="d_gIj7sqGyqCKvbwmr9H-48" style="edgeStyle=orthogonalEdgeStyle;rounded=0;orthogonalLoop=1;jettySize=auto;html=1;exitX=0;exitY=0.25;exitDx=0;exitDy=0;entryX=1;entryY=0.75;entryDx=0;entryDy=0;startSize=8;endArrow=diamondThin;endFill=1;endSize=12;strokeWidth=2;fontFamily=Times New Roman;fontSize=13;verticalAlign=top;" edge="1" parent="1" source="d_gIj7sqGyqCKvbwmr9H-50" target="d_gIj7sqGyqCKvbwmr9H-7">
          <mxGeometry relative="1" as="geometry" />
        </mxCell>
        <mxCell id="d_gIj7sqGyqCKvbwmr9H-49" style="edgeStyle=orthogonalEdgeStyle;rounded=0;orthogonalLoop=1;jettySize=auto;html=1;exitX=0;exitY=0.75;exitDx=0;exitDy=0;entryX=1;entryY=0.5;entryDx=0;entryDy=0;startSize=8;endArrow=diamondThin;endFill=1;endSize=12;strokeWidth=2;fontFamily=Times New Roman;fontSize=13;verticalAlign=top;" edge="1" parent="1" source="d_gIj7sqGyqCKvbwmr9H-50" target="d_gIj7sqGyqCKvbwmr9H-15">
          <mxGeometry relative="1" as="geometry">
            <mxPoint x="790" y="1530" as="sourcePoint" />
          </mxGeometry>
        </mxCell>
        <mxCell id="d_gIj7sqGyqCKvbwmr9H-50" value="Data Transfer Object" style="swimlane;fontStyle=1;align=center;verticalAlign=middle;childLayout=stackLayout;horizontal=1;startSize=40;horizontalStack=0;resizeParent=1;resizeParentMax=0;resizeLast=0;collapsible=1;marginBottom=0;strokeWidth=2;" vertex="1" parent="1">
          <mxGeometry x="710" y="1255" width="160" height="120" as="geometry">
            <mxRectangle x="720" y="1220" width="160" height="40" as="alternateBounds" />
          </mxGeometry>
        </mxCell>
        <mxCell id="d_gIj7sqGyqCKvbwmr9H-51" value="- value1" style="text;strokeColor=none;fillColor=none;align=left;verticalAlign=top;spacingLeft=4;spacingRight=4;overflow=hidden;rotatable=0;points=[[0,0.5],[1,0.5]];portConstraint=eastwest;strokeWidth=2;" vertex="1" parent="d_gIj7sqGyqCKvbwmr9H-50">
          <mxGeometry y="40" width="160" height="20" as="geometry" />
        </mxCell>
        <mxCell id="d_gIj7sqGyqCKvbwmr9H-52" value="- value2" style="text;strokeColor=none;fillColor=none;align=left;verticalAlign=top;spacingLeft=4;spacingRight=4;overflow=hidden;rotatable=0;points=[[0,0.5],[1,0.5]];portConstraint=eastwest;strokeWidth=2;" vertex="1" parent="d_gIj7sqGyqCKvbwmr9H-50">
          <mxGeometry y="60" width="160" height="20" as="geometry" />
        </mxCell>
        <mxCell id="d_gIj7sqGyqCKvbwmr9H-53" value="- value3" style="text;strokeColor=none;fillColor=none;align=left;verticalAlign=top;spacingLeft=4;spacingRight=4;overflow=hidden;rotatable=0;points=[[0,0.5],[1,0.5]];portConstraint=eastwest;strokeWidth=2;" vertex="1" parent="d_gIj7sqGyqCKvbwmr9H-50">
          <mxGeometry y="80" width="160" height="30" as="geometry" />
        </mxCell>
        <mxCell id="d_gIj7sqGyqCKvbwmr9H-54" value="" style="line;strokeWidth=2;fillColor=none;align=left;verticalAlign=top;spacingTop=-1;spacingLeft=3;spacingRight=3;rotatable=0;labelPosition=right;points=[];portConstraint=eastwest;" vertex="1" parent="d_gIj7sqGyqCKvbwmr9H-50">
          <mxGeometry y="110" width="160" height="10" as="geometry" />
        </mxCell>
        <mxCell id="d_gIj7sqGyqCKvbwmr9H-55" style="edgeStyle=orthogonalEdgeStyle;rounded=0;orthogonalLoop=1;jettySize=auto;html=1;exitX=0;exitY=0.5;exitDx=0;exitDy=0;entryX=1;entryY=0.25;entryDx=0;entryDy=0;startSize=8;endArrow=diamondThin;endFill=1;endSize=12;strokeWidth=2;fontFamily=Times New Roman;fontSize=13;verticalAlign=top;" edge="1" parent="1" source="d_gIj7sqGyqCKvbwmr9H-57" target="d_gIj7sqGyqCKvbwmr9H-7">
          <mxGeometry relative="1" as="geometry" />
        </mxCell>
        <mxCell id="d_gIj7sqGyqCKvbwmr9H-56" style="edgeStyle=orthogonalEdgeStyle;rounded=0;orthogonalLoop=1;jettySize=auto;html=1;exitX=0.5;exitY=1;exitDx=0;exitDy=0;entryX=0.5;entryY=0;entryDx=0;entryDy=0;startSize=8;endArrow=diamondThin;endFill=1;endSize=12;strokeWidth=2;fontFamily=Times New Roman;fontSize=13;verticalAlign=top;" edge="1" parent="1" source="d_gIj7sqGyqCKvbwmr9H-57" target="d_gIj7sqGyqCKvbwmr9H-50">
          <mxGeometry relative="1" as="geometry" />
        </mxCell>
        <mxCell id="d_gIj7sqGyqCKvbwmr9H-57" value="Swagger" style="swimlane;fontStyle=1;align=center;verticalAlign=middle;childLayout=stackLayout;horizontal=1;startSize=40;horizontalStack=0;resizeParent=1;resizeParentMax=0;resizeLast=0;collapsible=1;marginBottom=0;strokeWidth=2;" vertex="1" parent="1">
          <mxGeometry x="710" y="1055" width="160" height="160" as="geometry">
            <mxRectangle x="720" y="1020" width="160" height="40" as="alternateBounds" />
          </mxGeometry>
        </mxCell>
        <mxCell id="d_gIj7sqGyqCKvbwmr9H-58" value="" style="line;strokeWidth=2;fillColor=none;align=left;verticalAlign=top;spacingTop=-1;spacingLeft=3;spacingRight=3;rotatable=0;labelPosition=right;points=[];portConstraint=eastwest;" vertex="1" parent="d_gIj7sqGyqCKvbwmr9H-57">
          <mxGeometry y="40" width="160" height="10" as="geometry" />
        </mxCell>
        <mxCell id="d_gIj7sqGyqCKvbwmr9H-59" value="+ DocumentBuilder()" style="text;strokeColor=none;fillColor=none;align=left;verticalAlign=top;spacingLeft=4;spacingRight=4;overflow=hidden;rotatable=0;points=[[0,0.5],[1,0.5]];portConstraint=eastwest;strokeWidth=2;" vertex="1" parent="d_gIj7sqGyqCKvbwmr9H-57">
          <mxGeometry y="50" width="160" height="20" as="geometry" />
        </mxCell>
        <mxCell id="d_gIj7sqGyqCKvbwmr9H-60" value="+ ApiTags()" style="text;strokeColor=none;fillColor=none;align=left;verticalAlign=top;spacingLeft=4;spacingRight=4;overflow=hidden;rotatable=0;points=[[0,0.5],[1,0.5]];portConstraint=eastwest;strokeWidth=2;" vertex="1" parent="d_gIj7sqGyqCKvbwmr9H-57">
          <mxGeometry y="70" width="160" height="20" as="geometry" />
        </mxCell>
        <mxCell id="d_gIj7sqGyqCKvbwmr9H-61" value="+ ApiBearerAuth()" style="text;strokeColor=none;fillColor=none;align=left;verticalAlign=top;spacingLeft=4;spacingRight=4;overflow=hidden;rotatable=0;points=[[0,0.5],[1,0.5]];portConstraint=eastwest;strokeWidth=2;" vertex="1" parent="d_gIj7sqGyqCKvbwmr9H-57">
          <mxGeometry y="90" width="160" height="20" as="geometry" />
        </mxCell>
        <mxCell id="d_gIj7sqGyqCKvbwmr9H-62" value="+ ApiConsumes()" style="text;strokeColor=none;fillColor=none;align=left;verticalAlign=top;spacingLeft=4;spacingRight=4;overflow=hidden;rotatable=0;points=[[0,0.5],[1,0.5]];portConstraint=eastwest;strokeWidth=2;" vertex="1" parent="d_gIj7sqGyqCKvbwmr9H-57">
          <mxGeometry y="110" width="160" height="20" as="geometry" />
        </mxCell>
        <mxCell id="d_gIj7sqGyqCKvbwmr9H-63" value="+ ApiProperty()" style="text;strokeColor=none;fillColor=none;align=left;verticalAlign=top;spacingLeft=4;spacingRight=4;overflow=hidden;rotatable=0;points=[[0,0.5],[1,0.5]];portConstraint=eastwest;strokeWidth=2;" vertex="1" parent="d_gIj7sqGyqCKvbwmr9H-57">
          <mxGeometry y="130" width="160" height="30" as="geometry" />
        </mxCell>
      </root>
    </mxGraphModel>
  </diagram>
  <diagram id="V8ho2gcYw_qLUWu6UgYD" name="Backend Deployment">
    <mxGraphModel dx="2049" dy="1084" grid="1" gridSize="10" guides="1" tooltips="1" connect="1" arrows="1" fold="1" page="1" pageScale="1" pageWidth="1100" pageHeight="850" math="0" shadow="0">
      <root>
        <mxCell id="0" />
        <mxCell id="1" parent="0" />
        <mxCell id="CjAYuj66UHgxwJwThlVv-1" value="" style="rounded=0;whiteSpace=wrap;html=1;strokeColor=#000000;strokeWidth=2;fontFamily=Times New Roman;fontSize=13;align=left;dashed=1;fillColor=none;" vertex="1" parent="1">
          <mxGeometry x="230" y="283" width="640.25" height="380" as="geometry" />
        </mxCell>
        <mxCell id="CjAYuj66UHgxwJwThlVv-2" style="edgeStyle=orthogonalEdgeStyle;rounded=0;orthogonalLoop=1;jettySize=auto;html=1;exitX=1;exitY=0.5;exitDx=0;exitDy=0;exitPerimeter=0;entryX=0.5;entryY=0;entryDx=0;entryDy=0;entryPerimeter=0;endArrow=none;endFill=0;fontFamily=Times New Roman;fontSize=15;strokeWidth=2;" edge="1" parent="1" source="CjAYuj66UHgxwJwThlVv-9" target="CjAYuj66UHgxwJwThlVv-8">
          <mxGeometry relative="1" as="geometry" />
        </mxCell>
        <mxCell id="CjAYuj66UHgxwJwThlVv-3" style="edgeStyle=orthogonalEdgeStyle;rounded=0;orthogonalLoop=1;jettySize=auto;html=1;exitX=0.5;exitY=0;exitDx=0;exitDy=0;exitPerimeter=0;endArrow=none;endFill=0;strokeWidth=2;fontFamily=Times New Roman;fontSize=13;" edge="1" parent="1" source="CjAYuj66UHgxwJwThlVv-4" target="CjAYuj66UHgxwJwThlVv-18">
          <mxGeometry relative="1" as="geometry" />
        </mxCell>
        <mxCell id="CjAYuj66UHgxwJwThlVv-4" value="" style="strokeWidth=2;html=1;shape=mxgraph.flowchart.database;whiteSpace=wrap;fontStyle=1;fontFamily=Times New Roman;fontSize=15;" vertex="1" parent="1">
          <mxGeometry x="510.25" y="723" width="80" height="80" as="geometry" />
        </mxCell>
        <mxCell id="CjAYuj66UHgxwJwThlVv-5" style="edgeStyle=orthogonalEdgeStyle;rounded=0;orthogonalLoop=1;jettySize=auto;html=1;exitX=0.5;exitY=0;exitDx=0;exitDy=0;exitPerimeter=0;entryX=0.5;entryY=0;entryDx=0;entryDy=0;entryPerimeter=0;endArrow=none;endFill=0;strokeWidth=2;fontFamily=Times New Roman;fontSize=13;" edge="1" parent="1" source="CjAYuj66UHgxwJwThlVv-7" target="CjAYuj66UHgxwJwThlVv-22">
          <mxGeometry relative="1" as="geometry" />
        </mxCell>
        <mxCell id="CjAYuj66UHgxwJwThlVv-6" style="edgeStyle=orthogonalEdgeStyle;rounded=0;orthogonalLoop=1;jettySize=auto;html=1;exitX=0.5;exitY=1;exitDx=0;exitDy=0;exitPerimeter=0;entryX=0.5;entryY=1;entryDx=0;entryDy=0;entryPerimeter=0;endArrow=none;endFill=0;strokeWidth=2;fontFamily=Times New Roman;fontSize=13;" edge="1" parent="1" source="CjAYuj66UHgxwJwThlVv-7" target="CjAYuj66UHgxwJwThlVv-22">
          <mxGeometry relative="1" as="geometry">
            <Array as="points">
              <mxPoint x="310.25" y="623" />
              <mxPoint x="790.25" y="623" />
            </Array>
          </mxGeometry>
        </mxCell>
        <mxCell id="CjAYuj66UHgxwJwThlVv-7" value="" style="outlineConnect=0;dashed=0;verticalLabelPosition=bottom;verticalAlign=top;align=center;html=1;shape=mxgraph.aws3.android;fillColor=#205E00;gradientColor=none;strokeWidth=2;fontStyle=1;fontFamily=Times New Roman;fontSize=15;" vertex="1" parent="1">
          <mxGeometry x="270" y="483" width="80" height="80" as="geometry" />
        </mxCell>
        <mxCell id="CjAYuj66UHgxwJwThlVv-8" value="" style="outlineConnect=0;dashed=0;verticalLabelPosition=bottom;verticalAlign=top;align=center;html=1;shape=mxgraph.aws3.android;fillColor=#8CC64F;gradientColor=none;strokeWidth=2;fontStyle=1;fontFamily=Times New Roman;fontSize=15;" vertex="1" parent="1">
          <mxGeometry x="510" y="323" width="80" height="80" as="geometry" />
        </mxCell>
        <mxCell id="CjAYuj66UHgxwJwThlVv-9" value="" style="outlineConnect=0;dashed=0;verticalLabelPosition=bottom;verticalAlign=top;align=center;html=1;shape=mxgraph.aws3.classic_load_balancer;gradientColor=none;labelBackgroundColor=none;fontColor=#000000;fillColor=#000000;strokeWidth=2;fontStyle=1;fontFamily=Times New Roman;fontSize=15;direction=south;" vertex="1" parent="1">
          <mxGeometry x="510.25" y="123" width="80" height="80" as="geometry" />
        </mxCell>
        <mxCell id="CjAYuj66UHgxwJwThlVv-10" value="Load Balancer" style="text;html=1;align=center;verticalAlign=middle;whiteSpace=wrap;rounded=0;fontStyle=1;strokeWidth=2;fontFamily=Times New Roman;fontSize=15;fillColor=#ffffff;" vertex="1" parent="1">
          <mxGeometry x="500.25" y="213" width="100" height="20" as="geometry" />
        </mxCell>
        <mxCell id="CjAYuj66UHgxwJwThlVv-11" style="edgeStyle=orthogonalEdgeStyle;rounded=0;orthogonalLoop=1;jettySize=auto;html=1;exitX=0.5;exitY=1;exitDx=0;exitDy=0;exitPerimeter=0;endArrow=none;endFill=0;fontFamily=Times New Roman;fontSize=15;strokeWidth=2;" edge="1" parent="1" source="CjAYuj66UHgxwJwThlVv-12" target="CjAYuj66UHgxwJwThlVv-9">
          <mxGeometry relative="1" as="geometry">
            <Array as="points">
              <mxPoint x="350.25" y="163" />
            </Array>
          </mxGeometry>
        </mxCell>
        <mxCell id="CjAYuj66UHgxwJwThlVv-12" value="" style="outlineConnect=0;dashed=0;verticalLabelPosition=bottom;verticalAlign=top;align=center;html=1;shape=mxgraph.aws3.internet_2;gradientColor=none;labelBackgroundColor=none;fontColor=#000000;fillColor=#000000;strokeWidth=2;fontStyle=1;fontFamily=Times New Roman;fontSize=15;" vertex="1" parent="1">
          <mxGeometry x="290.25" y="23" width="120.5" height="60" as="geometry" />
        </mxCell>
        <mxCell id="CjAYuj66UHgxwJwThlVv-13" value="Internet" style="text;html=1;strokeColor=none;align=center;verticalAlign=middle;whiteSpace=wrap;rounded=0;fontStyle=1;strokeWidth=2;fontFamily=Times New Roman;fontSize=15;fillColor=#ffffff;" vertex="1" parent="1">
          <mxGeometry x="320.5" y="93" width="60" height="20" as="geometry" />
        </mxCell>
        <mxCell id="CjAYuj66UHgxwJwThlVv-14" style="edgeStyle=orthogonalEdgeStyle;rounded=0;orthogonalLoop=1;jettySize=auto;html=1;exitX=0.5;exitY=0;exitDx=0;exitDy=0;exitPerimeter=0;endArrow=none;endFill=0;strokeWidth=2;fontFamily=Times New Roman;fontSize=13;" edge="1" parent="1" source="CjAYuj66UHgxwJwThlVv-16">
          <mxGeometry relative="1" as="geometry">
            <mxPoint x="429.82142857142844" y="463" as="targetPoint" />
          </mxGeometry>
        </mxCell>
        <mxCell id="CjAYuj66UHgxwJwThlVv-15" style="edgeStyle=orthogonalEdgeStyle;rounded=0;orthogonalLoop=1;jettySize=auto;html=1;exitX=0.5;exitY=1;exitDx=0;exitDy=0;exitPerimeter=0;endArrow=none;endFill=0;strokeWidth=2;fontFamily=Times New Roman;fontSize=13;" edge="1" parent="1" source="CjAYuj66UHgxwJwThlVv-16">
          <mxGeometry relative="1" as="geometry">
            <mxPoint x="430.41666666666697" y="623" as="targetPoint" />
          </mxGeometry>
        </mxCell>
        <mxCell id="CjAYuj66UHgxwJwThlVv-16" value="" style="outlineConnect=0;dashed=0;verticalLabelPosition=bottom;verticalAlign=top;align=center;html=1;shape=mxgraph.aws3.android;fillColor=#205E00;gradientColor=none;strokeWidth=2;fontStyle=1;fontFamily=Times New Roman;fontSize=15;" vertex="1" parent="1">
          <mxGeometry x="390" y="483" width="80" height="80" as="geometry" />
        </mxCell>
        <mxCell id="CjAYuj66UHgxwJwThlVv-17" style="edgeStyle=orthogonalEdgeStyle;rounded=0;orthogonalLoop=1;jettySize=auto;html=1;exitX=0.5;exitY=0;exitDx=0;exitDy=0;exitPerimeter=0;endArrow=none;endFill=0;strokeWidth=2;fontFamily=Times New Roman;fontSize=13;" edge="1" parent="1" source="CjAYuj66UHgxwJwThlVv-18" target="CjAYuj66UHgxwJwThlVv-8">
          <mxGeometry relative="1" as="geometry" />
        </mxCell>
        <mxCell id="CjAYuj66UHgxwJwThlVv-18" value="" style="outlineConnect=0;dashed=0;verticalLabelPosition=bottom;verticalAlign=top;align=center;html=1;shape=mxgraph.aws3.android;fillColor=#205E00;gradientColor=none;strokeWidth=2;fontStyle=1;fontFamily=Times New Roman;fontSize=15;" vertex="1" parent="1">
          <mxGeometry x="510.25" y="483" width="80" height="80" as="geometry" />
        </mxCell>
        <mxCell id="CjAYuj66UHgxwJwThlVv-19" style="edgeStyle=orthogonalEdgeStyle;rounded=0;orthogonalLoop=1;jettySize=auto;html=1;exitX=0.5;exitY=0;exitDx=0;exitDy=0;exitPerimeter=0;endArrow=none;endFill=0;strokeWidth=2;fontFamily=Times New Roman;fontSize=13;" edge="1" parent="1" source="CjAYuj66UHgxwJwThlVv-21">
          <mxGeometry relative="1" as="geometry">
            <mxPoint x="669.8214285714284" y="463" as="targetPoint" />
          </mxGeometry>
        </mxCell>
        <mxCell id="CjAYuj66UHgxwJwThlVv-20" style="edgeStyle=orthogonalEdgeStyle;rounded=0;orthogonalLoop=1;jettySize=auto;html=1;exitX=0.5;exitY=1;exitDx=0;exitDy=0;exitPerimeter=0;endArrow=none;endFill=0;strokeWidth=2;fontFamily=Times New Roman;fontSize=13;" edge="1" parent="1" source="CjAYuj66UHgxwJwThlVv-21">
          <mxGeometry relative="1" as="geometry">
            <mxPoint x="670.1388888888887" y="623" as="targetPoint" />
          </mxGeometry>
        </mxCell>
        <mxCell id="CjAYuj66UHgxwJwThlVv-21" value="" style="outlineConnect=0;dashed=0;verticalLabelPosition=bottom;verticalAlign=top;align=center;html=1;shape=mxgraph.aws3.android;fillColor=#205E00;gradientColor=none;strokeWidth=2;fontStyle=1;fontFamily=Times New Roman;fontSize=15;" vertex="1" parent="1">
          <mxGeometry x="630" y="483" width="80" height="80" as="geometry" />
        </mxCell>
        <mxCell id="CjAYuj66UHgxwJwThlVv-22" value="" style="outlineConnect=0;dashed=0;verticalLabelPosition=bottom;verticalAlign=top;align=center;html=1;shape=mxgraph.aws3.android;fillColor=#205E00;gradientColor=none;strokeWidth=2;fontStyle=1;fontFamily=Times New Roman;fontSize=15;" vertex="1" parent="1">
          <mxGeometry x="750" y="483" width="80" height="80" as="geometry" />
        </mxCell>
        <mxCell id="CjAYuj66UHgxwJwThlVv-23" value="API" style="text;html=1;strokeColor=none;align=center;verticalAlign=middle;whiteSpace=wrap;rounded=0;fontStyle=1;strokeWidth=2;fontFamily=Times New Roman;fontSize=15;fillColor=#ffffff;" vertex="1" parent="1">
          <mxGeometry x="500.25" y="413" width="100" height="20" as="geometry" />
        </mxCell>
        <mxCell id="CjAYuj66UHgxwJwThlVv-24" value="Provider Module" style="text;html=1;strokeColor=none;align=center;verticalAlign=middle;whiteSpace=wrap;rounded=0;fontStyle=1;strokeWidth=2;fontFamily=Times New Roman;fontSize=15;fillColor=#ffffff;" vertex="1" parent="1">
          <mxGeometry x="250.25" y="573" width="119.5" height="20" as="geometry" />
        </mxCell>
        <mxCell id="CjAYuj66UHgxwJwThlVv-25" value="Item Module" style="text;html=1;strokeColor=none;align=center;verticalAlign=middle;whiteSpace=wrap;rounded=0;fontStyle=1;strokeWidth=2;fontFamily=Times New Roman;fontSize=15;fillColor=#ffffff;" vertex="1" parent="1">
          <mxGeometry x="370.25" y="573" width="119.5" height="20" as="geometry" />
        </mxCell>
        <mxCell id="CjAYuj66UHgxwJwThlVv-26" value="Deliver Module" style="text;html=1;strokeColor=none;align=center;verticalAlign=middle;whiteSpace=wrap;rounded=0;fontStyle=1;strokeWidth=2;fontFamily=Times New Roman;fontSize=15;fillColor=#ffffff;" vertex="1" parent="1">
          <mxGeometry x="490.25" y="573" width="119.5" height="20" as="geometry" />
        </mxCell>
        <mxCell id="CjAYuj66UHgxwJwThlVv-27" value="Request Module" style="text;html=1;strokeColor=none;align=center;verticalAlign=middle;whiteSpace=wrap;rounded=0;fontStyle=1;strokeWidth=2;fontFamily=Times New Roman;fontSize=15;fillColor=#ffffff;" vertex="1" parent="1">
          <mxGeometry x="610.25" y="573" width="119.5" height="20" as="geometry" />
        </mxCell>
        <mxCell id="CjAYuj66UHgxwJwThlVv-28" value="Client Module" style="text;html=1;strokeColor=none;align=center;verticalAlign=middle;whiteSpace=wrap;rounded=0;fontStyle=1;strokeWidth=2;fontFamily=Times New Roman;fontSize=15;fillColor=#ffffff;" vertex="1" parent="1">
          <mxGeometry x="730.25" y="573" width="119.5" height="20" as="geometry" />
        </mxCell>
        <mxCell id="CjAYuj66UHgxwJwThlVv-29" value="Relational Database" style="text;html=1;strokeColor=none;align=center;verticalAlign=middle;whiteSpace=wrap;rounded=0;fontStyle=1;strokeWidth=2;fontFamily=Times New Roman;fontSize=15;fillColor=#ffffff;" vertex="1" parent="1">
          <mxGeometry x="480.25" y="813" width="140" height="15" as="geometry" />
        </mxCell>
        <mxCell id="CjAYuj66UHgxwJwThlVv-30" value="*:80&lt;br style=&quot;font-size: 13px;&quot;&gt;*:443" style="text;html=1;strokeColor=none;fillColor=none;align=left;verticalAlign=middle;whiteSpace=wrap;rounded=0;fontFamily=Times New Roman;fontSize=13;fontStyle=0" vertex="1" parent="1">
          <mxGeometry x="470.25" y="123" width="40" height="40" as="geometry" />
        </mxCell>
        <mxCell id="CjAYuj66UHgxwJwThlVv-31" value="127.0.0.1:3000" style="text;html=1;strokeColor=none;fillColor=none;align=left;verticalAlign=middle;whiteSpace=wrap;rounded=0;fontFamily=Times New Roman;fontSize=13;fontStyle=0" vertex="1" parent="1">
          <mxGeometry x="550.25" y="293" width="90" height="20" as="geometry" />
        </mxCell>
        <mxCell id="CjAYuj66UHgxwJwThlVv-32" value="127.0.0.1:5432" style="text;html=1;strokeColor=none;fillColor=none;align=left;verticalAlign=middle;whiteSpace=wrap;rounded=0;fontFamily=Times New Roman;fontSize=13;fontStyle=0" vertex="1" parent="1">
          <mxGeometry x="550.25" y="693" width="90" height="20" as="geometry" />
        </mxCell>
      </root>
    </mxGraphModel>
  </diagram>
</mxfile>
